<svg xmlns="http://www.w3.org/2000/svg" width="43.354" height="48" viewBox="0 0 43.354 48">
  <defs>
    <style>
      .cls-1 {
        fill: #3a9cd8;
      }
    </style>
  </defs>
  <g id="dental_1_" data-name="dental (1)" transform="translate(-0.004)">
    <path id="Path_1730" data-name="Path 1730" class="cls-1" d="M40.262,80.008a3.1,3.1,0,0,0-3.1,3.1v9.8l-1.612,2.051a2.326,2.326,0,0,0-2.259-1.783h-.1a2.332,2.332,0,0,0-1.7.738l-9.545,10.228a3.768,3.768,0,0,0-.267.346,3.831,3.831,0,0,0-.267-.346L11.868,93.907a2.332,2.332,0,0,0-1.7-.738h-.1a2.326,2.326,0,0,0-2.259,1.784L6.2,92.9V83.1A3.1,3.1,0,1,0,0,83.1V96.266a.776.776,0,0,0,.095.371l4.645,8.516a.8.8,0,0,0,.132.177l6.06,6.06a2.3,2.3,0,0,1,.68,1.642v6.459a.773.773,0,0,0,.774.774h18.58a.773.773,0,0,0,.774-.774v-6.459a2.306,2.306,0,0,1,.68-1.643l6.06-6.06a.783.783,0,0,0,.132-.177l4.645-8.516a.771.771,0,0,0,.095-.37V83.1A3.1,3.1,0,0,0,40.262,80.008ZM12.031,110.295l-5.982-5.982-4.5-8.244V83.1a1.548,1.548,0,0,1,3.1,0V93.169a.776.776,0,0,0,.166.479l8.516,10.839,1.217-.957L9.294,96.843V95.492a.775.775,0,0,1,.774-.774h.1a.776.776,0,0,1,.565.245l9.547,10.229a2.312,2.312,0,0,1,.625,1.584v11.941H13.165v-5.685A3.847,3.847,0,0,0,12.031,110.295ZM41.81,96.068l-4.5,8.244-5.982,5.982a3.849,3.849,0,0,0-1.133,2.738v5.685H22.455V106.776a2.309,2.309,0,0,1,.626-1.584l9.547-10.229a.776.776,0,0,1,.565-.245h.1a.775.775,0,0,1,.774.774v1.351l-5.254,6.686,1.217.957,8.516-10.839a.776.776,0,0,0,.166-.479V83.1a1.548,1.548,0,0,1,3.1,0Zm0,0" transform="translate(0 -72.265)"/>
    <path id="Path_1731" data-name="Path 1731" class="cls-1" d="M122.326,12.4a29.316,29.316,0,0,0,1.509,9.285l.608,1.828a1.849,1.849,0,0,0,3.507,0l1.9-5.7h.432l1.9,5.705a1.848,1.848,0,0,0,3.507,0l.608-1.827A29.338,29.338,0,0,0,137.81,12.4a7.308,7.308,0,0,0,2.323-5.431c0-3.841-2.778-6.968-6.193-6.968a5.72,5.72,0,0,0-3.871,1.528A5.723,5.723,0,0,0,126.2,0C122.782,0,120,3.127,120,6.968A7.307,7.307,0,0,0,122.326,12.4ZM126.2,1.549a4.306,4.306,0,0,1,3.283,1.593.8.8,0,0,0,1.177,0,4.3,4.3,0,0,1,3.282-1.593c2.562,0,4.645,2.431,4.645,5.419s-2.083,5.419-4.645,5.419v1.548a5.566,5.566,0,0,0,2.3-.5,27.758,27.758,0,0,1-1.408,7.763l-.608,1.825a.313.313,0,0,1-.57,0l-2.078-6.233a.773.773,0,0,0-.734-.53h-1.548a.772.772,0,0,0-.734.53l-2.078,6.232a.313.313,0,0,1-.57,0l-.608-1.827a27.814,27.814,0,0,1-1.409-7.763,5.554,5.554,0,0,0,2.3.5V12.388c-2.562,0-4.645-2.431-4.645-5.419S123.636,1.549,126.2,1.549Zm0,0" transform="translate(-108.387)"/>
  </g>
</svg>
