<svg xmlns="http://www.w3.org/2000/svg" width="346.502" height="204.3" viewBox="0 0 346.502 204.3">
  <defs>
    <style>
      .cls-1 {
        fill: rgba(97,170,186,0.37);
      }

      .cls-2 {
        fill: #d4f4fe;
      }

      .cls-3, .cls-39 {
        fill: #cbeafc;
      }

      .cls-17, .cls-19, .cls-20, .cls-22, .cls-25, .cls-26, .cls-27, .cls-28, .cls-3, .cls-35, .cls-36, .cls-37, .cls-39, .cls-40, .cls-42, .cls-43, .cls-45, .cls-46, .cls-50, .cls-7, .cls-9 {
        stroke: #2b84ba;
      }

      .cls-14, .cls-15, .cls-17, .cls-19, .cls-20, .cls-22, .cls-23, .cls-25, .cls-3, .cls-32, .cls-34, .cls-36, .cls-37, .cls-38, .cls-39, .cls-40, .cls-42, .cls-43, .cls-45, .cls-46, .cls-7 {
        stroke-linecap: round;
      }

      .cls-14, .cls-17, .cls-19, .cls-20, .cls-22, .cls-23, .cls-3, .cls-34, .cls-36, .cls-39, .cls-40, .cls-42, .cls-43, .cls-45, .cls-46, .cls-7 {
        stroke-linejoin: round;
      }

      .cls-25, .cls-26, .cls-3, .cls-7, .cls-8 {
        stroke-width: 0.933px;
      }

      .cls-10, .cls-19, .cls-24, .cls-33, .cls-4, .cls-40, .cls-46 {
        fill: #fff;
      }

      .cls-5 {
        fill: #ccd9e1;
      }

      .cls-11, .cls-12, .cls-18, .cls-21, .cls-41, .cls-47, .cls-48, .cls-5 {
        mix-blend-mode: multiply;
      }

      .cls-11, .cls-12, .cls-18, .cls-21, .cls-24, .cls-33, .cls-41, .cls-47, .cls-48, .cls-49, .cls-5 {
        isolation: isolate;
      }

      .cls-6 {
        fill: #2b84ba;
      }

      .cls-14, .cls-15, .cls-22, .cls-23, .cls-32, .cls-34, .cls-36, .cls-42, .cls-45, .cls-7 {
        fill: none;
      }

      .cls-25, .cls-26, .cls-27, .cls-28, .cls-35, .cls-37, .cls-38, .cls-50, .cls-8, .cls-9 {
        fill: #eff9ff;
      }

      .cls-14, .cls-15, .cls-34, .cls-38, .cls-8 {
        stroke: #001929;
      }

      .cls-15, .cls-25, .cls-26, .cls-27, .cls-28, .cls-32, .cls-35, .cls-37, .cls-38, .cls-50, .cls-8, .cls-9 {
        stroke-miterlimit: 10;
      }

      .cls-15, .cls-9 {
        stroke-width: 1.235px;
      }

      .cls-10 {
        opacity: 0.7;
      }

      .cls-11, .cls-12 {
        fill: #dff2fe;
      }

      .cls-12, .cls-21, .cls-47 {
        stroke: rgba(0,0,0,0);
      }

      .cls-13 {
        fill: #001929;
      }

      .cls-14 {
        stroke-width: 1.853px;
      }

      .cls-16 {
        fill: #f5b4b2;
      }

      .cls-17 {
        fill: #309dca;
      }

      .cls-17, .cls-19, .cls-20, .cls-22 {
        stroke-width: 1.206px;
      }

      .cls-18, .cls-21 {
        fill: #adc0cb;
      }

      .cls-20, .cls-43 {
        fill: #70b0d0;
      }

      .cls-23 {
        stroke: #fff;
        stroke-width: 1.399px;
      }

      .cls-24 {
        opacity: 0.6;
      }

      .cls-24, .cls-33, .cls-49 {
        mix-blend-mode: soft-light;
      }

      .cls-27 {
        stroke-width: 0.847px;
      }

      .cls-28, .cls-32 {
        stroke-width: 1.236px;
      }

      .cls-29 {
        fill: #00121d;
      }

      .cls-30 {
        fill: #431711;
      }

      .cls-31 {
        fill: #ce4d4c;
      }

      .cls-32 {
        stroke: #00121d;
      }

      .cls-34, .cls-35, .cls-36, .cls-37, .cls-38 {
        stroke-width: 0.954px;
      }

      .cls-39 {
        stroke-width: 1.391px;
      }

      .cls-40, .cls-42 {
        stroke-width: 1.374px;
      }

      .cls-41, .cls-47 {
        fill: #bababa;
      }

      .cls-43, .cls-45 {
        stroke-width: 1.052px;
      }

      .cls-44 {
        fill: #d4eefd;
      }

      .cls-46 {
        stroke-width: 1.087px;
      }

      .cls-48 {
        fill: #d0dde5;
      }

      .cls-49 {
        fill: #d1edfd;
      }

      .cls-50 {
        stroke-width: 0.866px;
      }
    </style>
  </defs>
  <g id="Group_1339" data-name="Group 1339" transform="translate(-23.778 -19.38)">
    <path id="Path_1903" data-name="Path 1903" class="cls-1" d="M184.41,244.806c0,4.4-25.148,7.968-56.171,7.968s-56.173-3.568-56.173-7.968,25.149-7.968,56.173-7.968S184.41,240.407,184.41,244.806Z" transform="translate(-7.959 -29.095)"/>
    <ellipse id="Ellipse_72" data-name="Ellipse 72" class="cls-1" cx="68.938" cy="7.969" rx="68.938" ry="7.969" transform="translate(213.329 205.526)"/>
    <path id="Path_1904" data-name="Path 1904" class="cls-2" d="M214.371,16.748a79.646,79.646,0,0,0-68.658,39.225A72.1,72.1,0,1,0,52.407,163.8H256.949a79.691,79.691,0,0,0-42.578-147.05Z" transform="translate(47.763 41.375)"/>
    <g id="Group_1317" data-name="Group 1317" transform="translate(194.44 19.983)">
      <g id="Group_1308" data-name="Group 1308" transform="translate(133.993 2.457)">
        <path id="Path_1905" data-name="Path 1905" class="cls-3" d="M381.058,51.228c5.682.005,7.177-7.041,4.469-11.719-3.867-6.678-3.549-10-1.82-11.831,1.55-1.641,4.259-.625,4.259-.625s-5.069-5.608-9.678-1.353C374.694,29.017,373.643,51.221,381.058,51.228Z" transform="translate(-375.519 -24.105)"/>
        <path id="Path_1906" data-name="Path 1906" class="cls-4" d="M383.386,28.167a2.871,2.871,0,0,1,.3-.271c-2.964.807-3.1,4.416-2.482,7.162.686,3.04,2.721,5.543,3.152,8.706a16.306,16.306,0,0,1-.373,6.957c2.9-2.1,3.314-7.117,1.228-10.724C381.339,33.32,381.659,30,383.386,28.167Z" transform="translate(-376.213 -24.594)"/>
        <path id="Path_1907" data-name="Path 1907" class="cls-5" d="M381.566,46.958a22.212,22.212,0,0,1-2.053-5.818c-.877-3.794-1.878-8.106-.412-11.879,1.173-3.023,4.7-4.2,7.659-3.293-1.775-1.382-5.235-3.256-8.472-.268-3.594,3.317-4.645,25.521,2.77,25.528a5.373,5.373,0,0,0,3.37-1.09A10.321,10.321,0,0,1,381.566,46.958Z" transform="translate(-375.519 -24.105)"/>
        <g id="Group_1306" data-name="Group 1306" transform="translate(5.127 5.995)">
          <path id="Path_1908" data-name="Path 1908" class="cls-6" d="M381.546,51.812l.746-.641c.207-.216.477-.455.752-.773l.432-.51.428-.6a7.843,7.843,0,0,0,.738-1.483A7.344,7.344,0,0,0,385.055,46a11.165,11.165,0,0,0-.488-4.057c-.392-1.361-.928-2.687-1.42-3.935a32.262,32.262,0,0,1-1.209-3.468,11.016,11.016,0,0,1-.3-1.439,7.229,7.229,0,0,1-.086-1.128,5.211,5.211,0,0,1,.035-.726l.025-.256s-.005.09-.016.257a5.146,5.146,0,0,0-.01.725,7.2,7.2,0,0,0,.125,1.117,11.3,11.3,0,0,0,.347,1.415,31.939,31.939,0,0,0,1.326,3.4c.534,1.229,1.121,2.54,1.57,3.915a11.6,11.6,0,0,1,.652,4.219,7.936,7.936,0,0,1-.376,1.967,8.509,8.509,0,0,1-.746,1.639l-.438.668-.444.565c-.284.352-.574.631-.793.872l-.723.668a.406.406,0,1,1-.553-.6Z" transform="translate(-381.405 -30.987)"/>
        </g>
        <g id="Group_1307" data-name="Group 1307" transform="translate(2.769 0.788)">
          <path id="Path_1909" data-name="Path 1909" class="cls-6" d="M378.832,50.118l.227-.206c.139-.138.391-.327.621-.589a7.381,7.381,0,0,0,.781-.993,4.345,4.345,0,0,0,.4-.68,4.75,4.75,0,0,0,.36-.8,8.956,8.956,0,0,0,.5-1.93,13.04,13.04,0,0,0,.11-2.253,20.786,20.786,0,0,0-.227-2.428c-.13-.824-.284-1.66-.47-2.491-.362-1.665-.8-3.318-1.149-4.887a17.226,17.226,0,0,1-.534-4.358,5.376,5.376,0,0,1,.354-1.721,3.449,3.449,0,0,1,.763-1.111l.383-.323.321-.185.267-.152-.262.159-.313.194-.371.331a3.406,3.406,0,0,0-.718,1.116,5.256,5.256,0,0,0-.3,1.7c-.035,2.569,1.131,5.828,1.951,9.146.213.831.394,1.672.55,2.506a20.992,20.992,0,0,1,.306,2.481A13.459,13.459,0,0,1,382.336,45a9.506,9.506,0,0,1-.471,2.084,5.452,5.452,0,0,1-.366.885,4.9,4.9,0,0,1-.416.76,8,8,0,0,1-.854,1.146c-.258.3-.478.476-.619.624l-.222.213a.406.406,0,0,1-.564-.585Z" transform="translate(-378.698 -25.01)"/>
        </g>
      </g>
      <g id="Group_1316" data-name="Group 1316" transform="translate(0 0)">
        <path id="Path_1910" data-name="Path 1910" class="cls-7" d="M340.2,180c1.881,4.107,16.951,18.06,29.221,3.553" transform="translate(-236.972 -41.749)"/>
        <path id="Path_1911" data-name="Path 1911" class="cls-8" d="M373.245,184c1.077.9,2.387.408,3.355-.321.681-.51.834-4.074.02-4.339s-2.412,1.524-2.412,1.524-.655-1.095-.869-.742C372.622,181.3,372.18,183.11,373.245,184Z" transform="translate(-241.151 -41.66)"/>
        <g id="Group_1314" data-name="Group 1314" transform="translate(4.037 83.717)">
          <path id="Path_1912" data-name="Path 1912" class="cls-9" d="M301.025,117.394c-7.21,0-13.717,6.544-23.448,6.544s-16.236-6.544-23.447-6.544c-14.256,0-29.7,20.344-27.613,36.667,2.331,18.2,22.592,73.07,36.578,73.07,6.9,0,6.869-13.709,10.4-28.422,1.611-6.724,4.84-7.529,6.454.538,3.021,15.1,5.646,27.883,12.109,27.883,13.987,0,34.65-58.439,36.579-73.07C330.791,137.745,314.915,117.394,301.025,117.394Z" transform="translate(-226.326 -117.394)"/>
          <path id="Path_1913" data-name="Path 1913" class="cls-10" d="M260.363,202.142c6.653.538,5.334-19.544,19.1-20.362,7.9-.47,11.4,3.464,12.562,9.56,1.233,6.448.774,12.47,7.711,12.057s25.878-30.3,25.363-49.262c-.235-8.666-3.9-18.415-7.979-26.041a14.791,14.791,0,0,0-13.678-7.67c-6.983.255-13.221,4.9-19.142,8.117-7.974,4.331-13.839-2.913-21.027-4.854-6.869-1.857-13.205-.03-17.748,5.65-5.486,6.86-5.581,17-3.59,25.192C243.386,160.5,253.71,201.6,260.363,202.142Z" transform="translate(-228.186 -117.783)"/>
          <path id="Path_1914" data-name="Path 1914" class="cls-4" d="M281.912,132.833c4.72.5,8.64-.649,13.136-1.934,4.367-1.246,9.165-2,13.38.2,8.619,4.5,12.7,15.635,14.321,24.636.976,5.411,1.667,10.929.848,16.4a37.14,37.14,0,0,1-1.095,4.885c3.4-7.787,5.751-16.05,5.564-22.891-.235-8.666-3.9-18.415-7.979-26.041a14.79,14.79,0,0,0-13.678-7.67c-6.983.255-13.221,4.9-19.142,8.117-7.974,4.331-13.839-2.913-21.026-4.854a20.777,20.777,0,0,0-2.476-.51C268.4,128.272,275.249,132.127,281.912,132.833Z" transform="translate(-231.154 -117.783)"/>
          <path id="Path_1915" data-name="Path 1915" class="cls-11" d="M268.343,126.21a15.661,15.661,0,0,0,12.744,2.921c5.384-.953,11.346-3.806,13.339-8.413-3.715,1.622-7.744,3.228-12.567,3.228-9.223,0-15.547-5.875-22.323-6.489C262.491,120.354,265.1,123.585,268.343,126.21Z" transform="translate(-230.609 -117.402)"/>
          <path id="Path_1916" data-name="Path 1916" class="cls-12" d="M307.782,205.242c-2.633,3.914-9.737,8.87-15.216,7.385-5.379-1.456-5.84-9.017-6.867-13.426-.483-2.076-.806-5.739-3.046-6.727a8.223,8.223,0,0,0-7.2.4,18.355,18.355,0,0,0-8.425,12.371c-.693,4.55-1.523,11.008-7.4,11.13-3.088.064-4.666-3.327-6.479-5.422-2.929-3.383-16.018-26.514-26.131-48.428,3.71,20.339,22.8,70.423,36.163,70.423,6.9,0,6.869-13.709,10.4-28.422,1.612-6.724,4.84-7.529,6.455.538,3.021,15.1,5.646,27.883,12.109,27.883,10.107,0,23.695-30.506,31.187-52.955C318.362,190.179,313.549,196.673,307.782,205.242Z" transform="translate(-226.416 -123.214)"/>
          <g id="Group_1309" data-name="Group 1309" transform="translate(28.202 32.808)">
            <path id="Path_1917" data-name="Path 1917" class="cls-13" d="M269.192,160.3a5.245,5.245,0,1,1-5.245-5.244A5.245,5.245,0,0,1,269.192,160.3Z" transform="translate(-258.703 -155.058)"/>
            <path id="Path_1918" data-name="Path 1918" class="cls-4" d="M268.281,162.624a1.547,1.547,0,1,1-1.548-1.546A1.549,1.549,0,0,1,268.281,162.624Z" transform="translate(-259.539 -155.834)"/>
            <path id="Path_1919" data-name="Path 1919" class="cls-4" d="M266.037,159.786a1,1,0,1,1-1-1A1,1,0,0,1,266.037,159.786Z" transform="translate(-259.391 -155.539)"/>
          </g>
          <g id="Group_1310" data-name="Group 1310" transform="translate(66.286 32.808)">
            <path id="Path_1920" data-name="Path 1920" class="cls-13" d="M302.424,160.3a5.245,5.245,0,1,0,5.245-5.244A5.245,5.245,0,0,0,302.424,160.3Z" transform="translate(-302.424 -155.058)"/>
            <path id="Path_1921" data-name="Path 1921" class="cls-4" d="M304.43,162.624a1.547,1.547,0,1,0,1.547-1.546A1.548,1.548,0,0,0,304.43,162.624Z" transform="translate(-302.683 -155.834)"/>
            <path id="Path_1922" data-name="Path 1922" class="cls-4" d="M306.837,159.786a1,1,0,1,0,1-1A1,1,0,0,0,306.837,159.786Z" transform="translate(-302.993 -155.539)"/>
          </g>
          <path id="Path_1923" data-name="Path 1923" class="cls-14" d="M314.048,149.988c-1.255-4.931-9.568-5.02-10.13-.537" transform="translate(-236.331 -121.106)"/>
          <path id="Path_1924" data-name="Path 1924" class="cls-14" d="M258.227,149.988c1.256-4.931,9.569-5.02,10.13-.537" transform="translate(-230.44 -121.106)"/>
          <g id="Group_1311" data-name="Group 1311" transform="translate(40.932 3.768)">
            <path id="Path_1925" data-name="Path 1925" class="cls-6" d="M294.142,122.771l-.88.3c-.275.1-.632.193-1,.354l-1.25.513c-.932.37-2.013.869-3.209,1.307-.6.22-1.2.476-1.841.681l-1.937.6c-.64.227-1.32.321-1.967.486-.656.132-1.286.327-1.921.4l-1.816.234a13.763,13.763,0,0,1-1.629.166l-3.377.089,3.361-.256a13.389,13.389,0,0,0,1.61-.247l1.787-.321c.621-.1,1.239-.325,1.878-.487.63-.194,1.292-.319,1.914-.575l1.875-.691c.617-.232,1.2-.517,1.781-.761,1.158-.49,2.2-1.036,3.129-1.46l1.277-.6c.38-.188.716-.292.99-.409l.864-.338a.538.538,0,0,1,.393,1l-.023.009Z" transform="translate(-273.317 -121.72)"/>
          </g>
          <path id="Path_1926" data-name="Path 1926" class="cls-6" d="M248.312,124.813a4.452,4.452,0,0,0-2.517,1.216,7.109,7.109,0,0,0-1.964,2.51.05.05,0,0,0,.087.05,8.543,8.543,0,0,1,2.143-2.217c.7-.536,1.733-.746,2.335-1.354A.121.121,0,0,0,248.312,124.813Z" transform="translate(-228.582 -118.35)"/>
          <path id="Path_1927" data-name="Path 1927" class="cls-6" d="M249.661,125.705a3.911,3.911,0,0,0-2.757,1.732c-.027.052.032.125.088.085a6.888,6.888,0,0,1,2.841-1.2C250.24,126.25,250.069,125.631,249.661,125.705Z" transform="translate(-228.979 -118.465)"/>
          <path id="Path_1928" data-name="Path 1928" class="cls-6" d="M248.48,207.271c-.413-.533-.96-.9-1.415-1.4a4.6,4.6,0,0,1-1.149-2.194c-.008-.045-.07-.03-.072.01-.167,1.492.946,3.592,2.591,3.693C248.5,207.383,248.511,207.31,248.48,207.271Z" transform="translate(-228.841 -128.516)"/>
          <path id="Path_1929" data-name="Path 1929" class="cls-6" d="M250.8,206.6c-.787-.7-1.9-.993-2.55-1.867a.063.063,0,0,0-.113.05,2.713,2.713,0,0,0,2.615,1.935A.07.07,0,0,0,250.8,206.6Z" transform="translate(-229.138 -128.652)"/>
          <path id="Path_1930" data-name="Path 1930" class="cls-6" d="M325.13,198.647c-.473.945-.64,2.016-1.131,2.977-.476.932-1.159,1.724-1.713,2.6-.014.021.012.049.033.035,1.544-1.042,3.212-3.621,3.1-5.536C325.414,198.58,325.2,198.5,325.13,198.647Z" transform="translate(-238.699 -127.861)"/>
          <path id="Path_1931" data-name="Path 1931" class="cls-6" d="M324.413,196.853a.109.109,0,0,0-.2-.025,4.328,4.328,0,0,0-.486,1.641,10.444,10.444,0,0,1-.508,1.734c-.069.168.185.247.277.117C324.13,199.421,324.827,197.964,324.413,196.853Z" transform="translate(-238.819 -127.63)"/>
          <path id="Path_1932" data-name="Path 1932" class="cls-6" d="M313.764,120.611a4.1,4.1,0,0,0-3.842-.1c-.053.023-.024.1.03.1.571,0,1.136-.058,1.708-.071.7-.012,1.362.19,2.057.245C313.82,120.8,313.833,120.662,313.764,120.611Z" transform="translate(-237.102 -117.741)"/>
          <path id="Path_1933" data-name="Path 1933" class="cls-6" d="M315.443,122.469a3.09,3.09,0,0,0-3.059-.452c-.115.039-.1.238.03.223a3.775,3.775,0,0,1,2.187.429c.212.11.812.588.922.1A.311.311,0,0,0,315.443,122.469Z" transform="translate(-237.413 -117.963)"/>
          <path id="Path_1934" data-name="Path 1934" class="cls-15" d="M277.448,176.774c0,9.011,13.448,9.011,13.448,0" transform="translate(-232.918 -125.051)"/>
          <path id="Path_1935" data-name="Path 1935" class="cls-16" d="M314.515,173.405c0,1.436-2.258,2.6-5.043,2.6s-5.043-1.163-5.043-2.6,2.258-2.6,5.043-2.6S314.515,171.97,314.515,173.405Z" transform="translate(-236.397 -124.281)"/>
          <path id="Path_1936" data-name="Path 1936" class="cls-16" d="M268.337,173.405c0,1.436-2.258,2.6-5.043,2.6s-5.041-1.163-5.041-2.6,2.256-2.6,5.041-2.6S268.337,171.97,268.337,173.405Z" transform="translate(-230.443 -124.281)"/>
          <path id="Path_1937" data-name="Path 1937" class="cls-15" d="M292.359,175.54a2.541,2.541,0,0,0,1.793,1.794" transform="translate(-234.841 -124.891)"/>
          <path id="Path_1938" data-name="Path 1938" class="cls-6" d="M286.048,186.289a8.432,8.432,0,0,1-1.7.219c-.169,0-.824-.005-.867.27-.062.383.417.649.73.729a3.533,3.533,0,0,0,2.145-.1A.581.581,0,0,0,286.048,186.289Z" transform="translate(-233.695 -126.275)"/>
          <g id="Group_1312" data-name="Group 1312" transform="translate(66.173 45.032)">
            <path id="Path_1939" data-name="Path 1939" class="cls-13" d="M303.09,170.387a.18.18,0,0,0,0,.359A.18.18,0,0,0,303.09,170.387Z" transform="translate(-302.375 -169.259)"/>
            <path id="Path_1940" data-name="Path 1940" class="cls-13" d="M305.053,170.035a.665.665,0,0,0,0,1.33A.665.665,0,0,0,305.053,170.035Z" transform="translate(-302.568 -169.214)"/>
            <path id="Path_1941" data-name="Path 1941" class="cls-13" d="M309.286,169.738a.337.337,0,0,0,0,.673A.337.337,0,0,0,309.286,169.738Z" transform="translate(-303.154 -169.175)"/>
            <path id="Path_1942" data-name="Path 1942" class="cls-13" d="M307.68,171.275a.516.516,0,0,0,0,1.032A.516.516,0,0,0,307.68,171.275Z" transform="translate(-302.925 -169.373)"/>
            <path id="Path_1943" data-name="Path 1943" class="cls-13" d="M311.04,171.662a.574.574,0,0,0,0,1.148A.574.574,0,0,0,311.04,171.662Z" transform="translate(-303.351 -169.423)"/>
            <path id="Path_1944" data-name="Path 1944" class="cls-13" d="M313.182,169.092a.457.457,0,0,0,0,.914A.457.457,0,0,0,313.182,169.092Z" transform="translate(-303.642 -169.092)"/>
            <path id="Path_1945" data-name="Path 1945" class="cls-13" d="M316.292,169.9a.356.356,0,0,0,0,.713A.356.356,0,0,0,316.292,169.9Z" transform="translate(-304.055 -169.196)"/>
            <path id="Path_1946" data-name="Path 1946" class="cls-13" d="M316.084,172.51a.146.146,0,0,0,0,.291A.146.146,0,0,0,316.084,172.51Z" transform="translate(-304.055 -169.533)"/>
            <path id="Path_1947" data-name="Path 1947" class="cls-13" d="M304.659,173.822a.314.314,0,0,0,0,.628A.314.314,0,0,0,304.659,173.822Z" transform="translate(-302.561 -169.702)"/>
            <path id="Path_1948" data-name="Path 1948" class="cls-13" d="M302.569,171.976a.284.284,0,0,0,0,.567A.284.284,0,0,0,302.569,171.976Z" transform="translate(-302.295 -169.464)"/>
            <path id="Path_1949" data-name="Path 1949" class="cls-13" d="M307.852,174.448a.082.082,0,0,0,0,.165A.082.082,0,0,0,307.852,174.448Z" transform="translate(-303.001 -169.783)"/>
            <path id="Path_1950" data-name="Path 1950" class="cls-13" d="M310.3,173.838a.15.15,0,0,0,0,.3A.15.15,0,0,0,310.3,173.838Z" transform="translate(-303.308 -169.704)"/>
          </g>
          <g id="Group_1313" data-name="Group 1313" transform="translate(27.157 45.032)">
            <path id="Path_1951" data-name="Path 1951" class="cls-13" d="M258.3,170.387a.18.18,0,0,0,0,.359A.18.18,0,0,0,258.3,170.387Z" transform="translate(-257.584 -169.259)"/>
            <path id="Path_1952" data-name="Path 1952" class="cls-13" d="M260.262,170.035a.665.665,0,0,0,0,1.33A.665.665,0,0,0,260.262,170.035Z" transform="translate(-257.776 -169.214)"/>
            <path id="Path_1953" data-name="Path 1953" class="cls-13" d="M264.492,169.738a.337.337,0,0,0,0,.673A.337.337,0,0,0,264.492,169.738Z" transform="translate(-258.363 -169.175)"/>
            <path id="Path_1954" data-name="Path 1954" class="cls-13" d="M262.889,171.275a.516.516,0,0,0,0,1.032A.516.516,0,0,0,262.889,171.275Z" transform="translate(-258.133 -169.373)"/>
            <path id="Path_1955" data-name="Path 1955" class="cls-13" d="M266.248,171.662a.574.574,0,0,0,0,1.148A.574.574,0,0,0,266.248,171.662Z" transform="translate(-258.559 -169.423)"/>
            <path id="Path_1956" data-name="Path 1956" class="cls-13" d="M268.391,169.092a.457.457,0,0,0,0,.914A.457.457,0,0,0,268.391,169.092Z" transform="translate(-258.85 -169.092)"/>
            <path id="Path_1957" data-name="Path 1957" class="cls-13" d="M271.5,169.9a.356.356,0,0,0,0,.713A.356.356,0,0,0,271.5,169.9Z" transform="translate(-259.264 -169.196)"/>
            <path id="Path_1958" data-name="Path 1958" class="cls-13" d="M271.29,172.51a.146.146,0,0,0,0,.291A.146.146,0,0,0,271.29,172.51Z" transform="translate(-259.263 -169.533)"/>
            <path id="Path_1959" data-name="Path 1959" class="cls-13" d="M259.865,173.822a.314.314,0,0,0,0,.628A.314.314,0,0,0,259.865,173.822Z" transform="translate(-257.769 -169.702)"/>
            <path id="Path_1960" data-name="Path 1960" class="cls-13" d="M257.777,171.976a.284.284,0,0,0,0,.567A.284.284,0,0,0,257.777,171.976Z" transform="translate(-257.504 -169.464)"/>
            <path id="Path_1961" data-name="Path 1961" class="cls-13" d="M263.06,174.448a.082.082,0,0,0,0,.165A.082.082,0,0,0,263.06,174.448Z" transform="translate(-258.21 -169.783)"/>
            <path id="Path_1962" data-name="Path 1962" class="cls-13" d="M265.5,173.838a.15.15,0,0,0,0,.3A.15.15,0,0,0,265.5,173.838Z" transform="translate(-258.516 -169.704)"/>
          </g>
        </g>
        <g id="Group_1315" data-name="Group 1315" transform="translate(111.361)">
          <path id="Rectangle_249" data-name="Rectangle 249" class="cls-17" d="M3.731,0H19.563a3.731,3.731,0,0,1,3.731,3.731v84.9a3.732,3.732,0,0,1-3.732,3.732H3.731A3.731,3.731,0,0,1,0,88.633V3.731A3.731,3.731,0,0,1,3.731,0Z" transform="translate(0 99.003)"/>
          <path id="Path_1963" data-name="Path 1963" class="cls-18" d="M360.728,219.723a3.25,3.25,0,0,1-3.251-3.25V134.942h-4.689a3.251,3.251,0,0,0-3.251,3.251v85.864a3.251,3.251,0,0,0,3.251,3.25h16.794a3.25,3.25,0,0,0,3.25-3.25v-4.334Z" transform="translate(-349.537 -35.939)"/>
          <path id="Path_1964" data-name="Path 1964" class="cls-19" d="M376.125,21.907h-8.533V53.734h8.533c.678,0,.949-2.3,0-2.3.881-.881.611-2.913,0-2.913,1.017-.879.678-2.64,0-2.64a2.053,2.053,0,0,0,0-3.047c1.152-1.017,1.017-3.522,0-3.657a1.725,1.725,0,0,0,0-2.981,1.475,1.475,0,0,0,0-2.775c1.693-1.017.611-2.3,0-2.3,1.693-.745.611-1.828,0-2.032,1.693-.608.881-2.64,0-2.843a1.288,1.288,0,0,0,0-2.37C377.683,22.787,376.125,21.907,376.125,21.907Z" transform="translate(-351.865 -21.364)"/>
          <path id="Path_1965" data-name="Path 1965" class="cls-20" d="M356.094,53.926v63.652h12.375c-2.545-18.838-6.174-49.583-4.861-63.316H365.5V21.284h-7.635a4.887,4.887,0,0,0-4.886,4.886V49.377A4.885,4.885,0,0,0,356.094,53.926Z" transform="translate(-349.981 -21.284)"/>
          <path id="Path_1966" data-name="Path 1966" class="cls-21" d="M365.193,117.578c-2.942-4.349-4.075-10.461-4.843-15.108a221.533,221.533,0,0,1-2.786-26.146,82.513,82.513,0,0,1,.962-18.418c.44-2.43,1.273-4.831,1.388-7.308a41.646,41.646,0,0,0-.332-7.01c-.918-7.444-2.52-15.242-.331-22.3h-1.384a4.887,4.887,0,0,0-4.886,4.886V49.377a4.885,4.885,0,0,0,3.112,4.55v63.652Z" transform="translate(-349.981 -21.284)"/>
          <line id="Line_5" data-name="Line 5" class="cls-22" x1="5.756" transform="translate(18.503 2.506)"/>
          <line id="Line_6" data-name="Line 6" class="cls-22" x1="4.265" transform="translate(19.994 4.876)"/>
          <line id="Line_7" data-name="Line 7" class="cls-22" x1="5.484" transform="translate(18.776 7.72)"/>
          <line id="Line_8" data-name="Line 8" class="cls-22" x1="3.521" transform="translate(20.739 9.752)"/>
          <line id="Line_9" data-name="Line 9" class="cls-22" x1="5.214" transform="translate(19.046 12.055)"/>
          <line id="Line_10" data-name="Line 10" class="cls-22" x1="2.133" transform="translate(22.127 14.829)"/>
          <line id="Line_11" data-name="Line 11" class="cls-22" x1="4.265" transform="translate(19.994 17.811)"/>
          <line id="Line_12" data-name="Line 12" class="cls-22" x1="5.484" transform="translate(18.776 21.467)"/>
          <line id="Line_13" data-name="Line 13" class="cls-22" x1="3.772" transform="translate(20.488 24.514)"/>
          <line id="Line_14" data-name="Line 14" class="cls-22" x1="3.521" transform="translate(20.739 27.154)"/>
          <line id="Line_15" data-name="Line 15" class="cls-22" x1="4.672" transform="translate(19.588 30.067)"/>
          <path id="Path_1967" data-name="Path 1967" class="cls-20" d="M371.317,131.254a2.844,2.844,0,0,1-2.843,2.846H354.423a2.846,2.846,0,0,1-2.846-2.846h0a2.844,2.844,0,0,1,2.846-2.843h14.051a2.843,2.843,0,0,1,2.843,2.843Z" transform="translate(-349.8 -35.097)"/>
          <path id="Path_1968" data-name="Path 1968" class="cls-18" d="M351.615,132.143a2.842,2.842,0,0,0,2.813,2.438h14.051a2.841,2.841,0,0,0,2.811-2.438Z" transform="translate(-349.805 -35.578)"/>
          <line id="Line_16" data-name="Line 16" class="cls-23" x2="12.323" transform="translate(5.706 94.668)"/>
          <path id="Rectangle_250" data-name="Rectangle 250" class="cls-24" d="M3.731,0h.358A3.731,3.731,0,0,1,7.821,3.731V73.193a3.731,3.731,0,0,1-3.731,3.731H3.73A3.73,3.73,0,0,1,0,73.194V3.731A3.731,3.731,0,0,1,3.731,0Z" transform="translate(13.696 103.337)"/>
          <path id="Path_1969" data-name="Path 1969" class="cls-4" d="M365.27,34.57c.072-2.936.489-7.049-1.316-9.591a.058.058,0,0,0-.106.029c-.405,3.091.032,6.435-.054,9.562-.051,1.826-.095,3.651-.076,5.477.012,1.328-.145,2.93.7,4.029.139.178.484.268.6,0,.549-1.258.207-2.683.177-4.029C365.151,38.222,365.223,36.394,365.27,34.57Z" transform="translate(-351.36 -21.757)"/>
          <path id="Path_1970" data-name="Path 1970" class="cls-4" d="M364.229,94.953c-.246-3.275-.635-6.541-.948-9.81-.632-6.573-.7-13.214-1.159-19.8a.134.134,0,0,0-.267,0,134.861,134.861,0,0,0-.18,19.05c.232,3.273.626,6.534.9,9.8.244,2.906-.2,6.247.655,9.036a.4.4,0,0,0,.761,0C365,100.737,364.425,97.573,364.229,94.953Z" transform="translate(-351.069 -26.949)"/>
        </g>
        <path id="Path_1971" data-name="Path 1971" class="cls-7" d="M231.039,179.431c-4.2,1.652-17.913,17.778-1.438,31.76" transform="translate(-221.692 -41.676)"/>
        <path id="Path_1972" data-name="Path 1972" class="cls-25" d="M233.759,180.053c.171,1.313-3.216,3.272-3.216,3.272s-3.589-2.162-3.224-5.241a5.755,5.755,0,0,1,4.016-2.361" transform="translate(-222.414 -41.197)"/>
        <path id="Path_1973" data-name="Path 1973" class="cls-25" d="M334.942,180.053c-.171,1.313,3.218,3.272,3.218,3.272s3.587-2.162,3.222-5.241a5.753,5.753,0,0,0-4.016-2.361" transform="translate(-236.294 -41.197)"/>
        <path id="Path_1974" data-name="Path 1974" class="cls-26" d="M230.1,215.373c-1.628,1.746.736,4.388,1.537,4.783,1.219.605,2.856-.165,2.932-1.158.07-.9-1.39-2.492-1.39-2.492s1.129-.593.789-.826C232.827,214.9,231.043,214.359,230.1,215.373Z" transform="translate(-222.703 -46.238)"/>
        <path id="Path_1975" data-name="Path 1975" class="cls-27" d="M377.284,183.557a1.879,1.879,0,0,1-2.182,0c-.764-.468-.862-3.77,0-4.226a2.072,2.072,0,0,1,2.182,0C377.741,179.685,377.689,183.115,377.284,183.557Z" transform="translate(-241.394 -41.623)"/>
      </g>
    </g>
    <g id="Group_1324" data-name="Group 1324" transform="translate(23.778 22.224)">
      <g id="Group_1318" data-name="Group 1318" transform="translate(308.334 88.388)">
        <path id="Path_1976" data-name="Path 1976" class="cls-4" d="M397.855,154.608s4.153-.6,5.119-1.86,1.861-5.122,1.861-5.122.229,3.708,1.86,5.122,5.118,1.86,5.118,1.86-4,.08-5.118,1.858a20.648,20.648,0,0,0-1.86,5.122s-.376-3.93-1.861-5.122S397.855,154.608,397.855,154.608Z" transform="translate(-382.078 -128.204)"/>
        <path id="Path_1977" data-name="Path 1977" class="cls-4" d="M379.743,153.654s1.894.665,2.586.348a9.482,9.482,0,0,0,1.924-1.761,4.309,4.309,0,0,0-.347,2.586,5.724,5.724,0,0,0,1.757,1.925s-1.714-.855-2.582-.348a9.874,9.874,0,0,0-1.927,1.76s.714-1.752.347-2.586A7.233,7.233,0,0,0,379.743,153.654Z" transform="translate(-379.743 -128.799)"/>
        <path id="Path_1978" data-name="Path 1978" class="cls-4" d="M414.561,127.722s.725-.73.725-1.118a4.782,4.782,0,0,0-.39-1.275s.591.69,1.115.726a2.941,2.941,0,0,0,1.275-.4s-.767.607-.725,1.12a5,5,0,0,0,.394,1.273s-.653-.712-1.118-.725A3.739,3.739,0,0,0,414.561,127.722Z" transform="translate(-384.233 -125.329)"/>
        <path id="Path_1979" data-name="Path 1979" class="cls-4" d="M387.868,136.857s.579-.084.717-.26a2.887,2.887,0,0,0,.26-.713,1.238,1.238,0,0,0,.258.713,1.674,1.674,0,0,0,.714.26s-.56.011-.714.26a2.929,2.929,0,0,0-.258.715s-.053-.549-.26-.715A2.192,2.192,0,0,0,387.868,136.857Z" transform="translate(-380.791 -126.69)"/>
        <path id="Path_1980" data-name="Path 1980" class="cls-4" d="M398.267,201.528s1.894.668,2.583.348a9.44,9.44,0,0,0,1.924-1.759,4.33,4.33,0,0,0-.351,2.584,5.794,5.794,0,0,0,1.762,1.925s-1.714-.854-2.584-.348a9.787,9.787,0,0,0-1.922,1.759s.711-1.751.343-2.584A7.289,7.289,0,0,0,398.267,201.528Z" transform="translate(-382.132 -134.972)"/>
        <path id="Path_1981" data-name="Path 1981" class="cls-4" d="M420.435,195.765s.72-.731.724-1.118a4.8,4.8,0,0,0-.392-1.274s.593.689,1.118.723a2.933,2.933,0,0,0,1.273-.393s-.768.605-.725,1.119a4.932,4.932,0,0,0,.4,1.273s-.655-.711-1.12-.724A3.719,3.719,0,0,0,420.435,195.765Z" transform="translate(-384.99 -134.103)"/>
        <path id="Path_1982" data-name="Path 1982" class="cls-4" d="M387.424,171.826s.722-.73.726-1.119a4.92,4.92,0,0,0-.393-1.273s.59.69,1.119.723a2.943,2.943,0,0,0,1.273-.392s-.771.607-.726,1.118a5.081,5.081,0,0,0,.393,1.273s-.653-.713-1.118-.724A3.693,3.693,0,0,0,387.424,171.826Z" transform="translate(-380.733 -131.016)"/>
        <path id="Path_1983" data-name="Path 1983" class="cls-4" d="M395.649,184.057s.578-.084.714-.26a2.791,2.791,0,0,0,.26-.713,1.265,1.265,0,0,0,.258.713,1.675,1.675,0,0,0,.716.26s-.559.01-.716.26a2.864,2.864,0,0,0-.258.715s-.052-.55-.26-.715A2.11,2.11,0,0,0,395.649,184.057Z" transform="translate(-381.794 -132.776)"/>
        <path id="Path_1984" data-name="Path 1984" class="cls-4" d="M421.236,148.772s.452.375.672.358a2.763,2.763,0,0,0,.7-.287,1.247,1.247,0,0,0-.356.671,1.666,1.666,0,0,0,.287.7s-.382-.408-.672-.355a2.873,2.873,0,0,0-.7.287s.373-.407.356-.671A2.154,2.154,0,0,0,421.236,148.772Z" transform="translate(-385.085 -128.352)"/>
        <path id="Path_1985" data-name="Path 1985" class="cls-4" d="M413.8,178.748s.454.374.675.356a2.838,2.838,0,0,0,.7-.288,1.28,1.28,0,0,0-.357.673,1.678,1.678,0,0,0,.287.7s-.381-.406-.672-.355a2.818,2.818,0,0,0-.7.287s.37-.409.357-.672A2.135,2.135,0,0,0,413.8,178.748Z" transform="translate(-384.126 -132.217)"/>
      </g>
      <g id="Group_1319" data-name="Group 1319" transform="translate(248.128 7.167)">
        <path id="Path_1986" data-name="Path 1986" class="cls-4" d="M382.133,56.5s.822-4.114-.041-5.447-4.2-3.466-4.2-3.466,3.569,1.027,5.445-.037,3.466-4.2,3.466-4.2-1.263,3.8.041,5.447a20.784,20.784,0,0,0,4.2,3.466s-3.831-.96-5.45.037S382.133,56.5,382.133,56.5Z" transform="translate(-319.298 -33.537)"/>
        <path id="Path_1987" data-name="Path 1987" class="cls-4" d="M337.343,84.892s1.261-1.562,1.189-2.318a9.445,9.445,0,0,0-1.013-2.4,4.324,4.324,0,0,0,2.32,1.194,5.749,5.749,0,0,0,2.4-1.015s-1.38,1.331-1.194,2.319a9.959,9.959,0,0,0,1.017,2.4s-1.414-1.257-2.321-1.192A7.294,7.294,0,0,0,337.343,84.892Z" transform="translate(-314.07 -38.285)"/>
        <path id="Path_1988" data-name="Path 1988" class="cls-4" d="M321.8,35.737s-.447-.925-.812-1.058a4.814,4.814,0,0,0-1.331-.055s.846-.327,1.056-.812a2.976,2.976,0,0,0,.057-1.333s.313.929.81,1.056a5.012,5.012,0,0,0,1.333.057s-.889.378-1.057.813A3.719,3.719,0,0,0,321.8,35.737Z" transform="translate(-311.79 -32.136)"/>
        <path id="Path_1989" data-name="Path 1989" class="cls-4" d="M311.22,58.347s.115-.575-.007-.76a2.774,2.774,0,0,0-.588-.483,1.256,1.256,0,0,0,.763-.006,1.691,1.691,0,0,0,.483-.586s-.177.53.005.761a2.942,2.942,0,0,0,.587.482s-.534-.134-.761.006A2.1,2.1,0,0,0,311.22,58.347Z" transform="translate(-310.625 -35.235)"/>
        <path id="Path_1990" data-name="Path 1990" class="cls-4" d="M379.815,96.428s1.261-1.562,1.193-2.319a9.493,9.493,0,0,0-1.016-2.4,4.316,4.316,0,0,0,2.318,1.193,5.757,5.757,0,0,0,2.4-1.014s-1.381,1.332-1.191,2.32a9.777,9.777,0,0,0,1.012,2.4s-1.412-1.257-2.32-1.193A7.282,7.282,0,0,0,379.815,96.428Z" transform="translate(-319.546 -39.772)"/>
        <path id="Path_1991" data-name="Path 1991" class="cls-4" d="M410.056,59.222s-.446-.925-.813-1.057a4.83,4.83,0,0,0-1.332-.056s.849-.327,1.057-.814a2.956,2.956,0,0,0,.057-1.331s.314.93.808,1.057a5.1,5.1,0,0,0,1.334.057s-.889.377-1.054.81A3.737,3.737,0,0,0,410.056,59.222Z" transform="translate(-323.169 -35.164)"/>
        <path id="Path_1992" data-name="Path 1992" class="cls-4" d="M358.33,75.78s-.445-.924-.81-1.056a4.806,4.806,0,0,0-1.332-.057s.849-.328,1.054-.812a2.915,2.915,0,0,0,.057-1.331s.315.927.814,1.056a4.988,4.988,0,0,0,1.334.055s-.891.379-1.059.814A3.744,3.744,0,0,0,358.33,75.78Z" transform="translate(-316.5 -37.299)"/>
        <path id="Path_1993" data-name="Path 1993" class="cls-4" d="M392.1,67.994s.115-.574,0-.761a2.785,2.785,0,0,0-.587-.483,1.247,1.247,0,0,0,.761-.007,1.685,1.685,0,0,0,.483-.586s-.179.53,0,.76a2.9,2.9,0,0,0,.586.485s-.532-.134-.76.006A2.129,2.129,0,0,0,392.1,67.994Z" transform="translate(-321.055 -36.478)"/>
        <path id="Path_1994" data-name="Path 1994" class="cls-4" d="M354.976,39.179s.5-.3.56-.515a2.684,2.684,0,0,0-.037-.759s.232.466.516.558a1.665,1.665,0,0,0,.759-.035s-.51.227-.558.515a2.879,2.879,0,0,0,.035.76s-.26-.485-.514-.561A2.135,2.135,0,0,0,354.976,39.179Z" transform="translate(-316.344 -32.836)"/>
        <path id="Path_1995" data-name="Path 1995" class="cls-4" d="M379,33.358s.5-.3.56-.513a2.793,2.793,0,0,0-.038-.76s.23.465.515.561a1.7,1.7,0,0,0,.76-.037s-.51.226-.56.513a3,3,0,0,0,.035.76s-.26-.485-.515-.558A2.082,2.082,0,0,0,379,33.358Z" transform="translate(-319.441 -32.085)"/>
      </g>
      <g id="Group_1320" data-name="Group 1320" transform="translate(157.513 1.317)">
        <path id="Path_1996" data-name="Path 1996" class="cls-4" d="M246.048,59.674s-3.408-2.442-3.69-4.006.706-5.4.706-5.4-1.909,3.186-4.009,3.691-5.4-.706-5.4-.706,3.516,1.914,3.691,4.007a20.674,20.674,0,0,1-.706,5.4s2.144-3.315,4.01-3.691S246.048,59.674,246.048,59.674Z" transform="translate(-210.085 -28.579)"/>
        <path id="Path_1997" data-name="Path 1997" class="cls-4" d="M263.794,67.331s-1.989-.28-2.454-.88a9.48,9.48,0,0,1-.9-2.449,4.3,4.3,0,0,1-.882,2.456,5.762,5.762,0,0,1-2.448.9s1.92.031,2.456.881a9.948,9.948,0,0,1,.9,2.448s.172-1.882.881-2.455A7.287,7.287,0,0,1,263.794,67.331Z" transform="translate(-213.109 -30.35)"/>
        <path id="Path_1998" data-name="Path 1998" class="cls-4" d="M245.4,28.451s-.3-.979-.13-1.325a4.824,4.824,0,0,1,.935-.951,2.2,2.2,0,0,1-1.325.131,2.948,2.948,0,0,1-.949-.936s.4.892.125,1.327a4.991,4.991,0,0,1-.934.949s.908-.329,1.328-.127A3.73,3.73,0,0,1,245.4,28.451Z" transform="translate(-211.305 -25.369)"/>
        <path id="Path_1999" data-name="Path 1999" class="cls-4" d="M265.071,48.92s-.476-.339-.517-.557a2.748,2.748,0,0,1,.1-.754s-.267.442-.56.514a1.671,1.671,0,0,1-.755-.1s.491.269.517.561a2.987,2.987,0,0,1-.1.754s.3-.463.562-.516A2.1,2.1,0,0,1,265.071,48.92Z" transform="translate(-213.913 -28.237)"/>
        <path id="Path_2000" data-name="Path 2000" class="cls-4" d="M225.32,101.315s-1.989-.28-2.455-.882a9.449,9.449,0,0,1-.9-2.447,4.3,4.3,0,0,1-.881,2.456,5.751,5.751,0,0,1-2.447.9s1.918.03,2.454.881a9.8,9.8,0,0,1,.9,2.449s.172-1.882.882-2.454A7.269,7.269,0,0,1,225.32,101.315Z" transform="translate(-208.149 -34.732)"/>
        <path id="Path_2001" data-name="Path 2001" class="cls-4" d="M208.873,86.16s-.3-.98-.13-1.325a4.958,4.958,0,0,1,.936-.95,2.205,2.205,0,0,1-1.327.129,2.946,2.946,0,0,1-.949-.936s.4.893.128,1.327a5,5,0,0,1-.936.949s.909-.33,1.327-.125A3.665,3.665,0,0,1,208.873,86.16Z" transform="translate(-206.596 -32.81)"/>
        <path id="Path_2002" data-name="Path 2002" class="cls-4" d="M249.2,80.1s-.3-.978-.13-1.327a4.866,4.866,0,0,1,.935-.95,2.191,2.191,0,0,1-1.324.13,2.925,2.925,0,0,1-.949-.935s.4.891.125,1.325a5,5,0,0,1-.936.95s.913-.329,1.328-.127A3.739,3.739,0,0,1,249.2,80.1Z" transform="translate(-211.795 -32.028)"/>
        <path id="Path_2003" data-name="Path 2003" class="cls-4" d="M236.446,87.248s-.476-.341-.516-.559a2.711,2.711,0,0,1,.1-.753s-.266.443-.557.516a1.706,1.706,0,0,1-.755-.1s.49.267.513.561a2.814,2.814,0,0,1-.1.752s.3-.462.561-.513A2.124,2.124,0,0,1,236.446,87.248Z" transform="translate(-210.222 -33.179)"/>
        <path id="Path_2004" data-name="Path 2004" class="cls-4" d="M230,44.124s-.572.125-.762.005a2.829,2.829,0,0,1-.491-.578,1.263,1.263,0,0,1,.009.76,1.7,1.7,0,0,1-.581.492s.527-.186.761-.006a2.954,2.954,0,0,1,.492.579s-.141-.533-.006-.761A2.139,2.139,0,0,1,230,44.124Z" transform="translate(-209.379 -27.714)"/>
        <path id="Path_2005" data-name="Path 2005" class="cls-4" d="M222.811,74.156s-.571.125-.759.009a2.841,2.841,0,0,1-.491-.581,1.257,1.257,0,0,1,.006.76,1.637,1.637,0,0,1-.581.493s.53-.184.76-.008a2.842,2.842,0,0,1,.492.581s-.139-.533,0-.76A2.1,2.1,0,0,1,222.811,74.156Z" transform="translate(-208.451 -31.586)"/>
      </g>
      <g id="Group_1321" data-name="Group 1321" transform="translate(71.61 54.216)">
        <path id="Path_2006" data-name="Path 2006" class="cls-4" d="M157.3,116.027s1.3-3.986,2.71-4.724,5.364-.952,5.364-.952-3.613-.862-4.726-2.713-.951-5.362-.951-5.362-.767,3.93-2.711,4.726a20.716,20.716,0,0,1-5.366.952s3.806,1.046,4.729,2.712S157.3,116.027,157.3,116.027Z" transform="translate(-113.605 -88.184)"/>
        <path id="Path_2007" data-name="Path 2007" class="cls-4" d="M156.163,135.272s-.332-1.982.1-2.605a9.455,9.455,0,0,1,2.065-1.595,4.318,4.318,0,0,1-2.606-.1,5.747,5.747,0,0,1-1.595-2.063s.549,1.838-.1,2.607a9.935,9.935,0,0,1-2.063,1.593s1.845-.4,2.6.1A7.293,7.293,0,0,1,156.163,135.272Z" transform="translate(-113.649 -91.618)"/>
        <path id="Path_2008" data-name="Path 2008" class="cls-4" d="M188.166,105.98s.843-.585,1.226-.523a4.844,4.844,0,0,1,1.188.607,2.2,2.2,0,0,1-.522-1.226,2.922,2.922,0,0,1,.607-1.187s-.731.653-1.227.522a5.03,5.03,0,0,1-1.186-.606s.587.766.521,1.228A3.774,3.774,0,0,1,188.166,105.98Z" transform="translate(-118.317 -88.35)"/>
        <path id="Path_2009" data-name="Path 2009" class="cls-4" d="M174.675,130.819s.179-.557.376-.662a2.788,2.788,0,0,1,.75-.131s-.505-.12-.661-.378a1.7,1.7,0,0,1-.132-.753s-.108.551-.379.664a2.988,2.988,0,0,1-.75.131s.531.146.661.379A2.147,2.147,0,0,1,174.675,130.819Z" transform="translate(-116.475 -91.616)"/>
        <path id="Path_2010" data-name="Path 2010" class="cls-4" d="M112.178,108.8s-.333-1.98.1-2.606a9.481,9.481,0,0,1,2.064-1.594,4.294,4.294,0,0,1-2.607-.1,5.738,5.738,0,0,1-1.594-2.063s.549,1.84-.1,2.605a9.836,9.836,0,0,1-2.064,1.6s1.848-.4,2.606.1A7.292,7.292,0,0,1,112.178,108.8Z" transform="translate(-107.977 -88.205)"/>
        <path id="Path_2011" data-name="Path 2011" class="cls-4" d="M122.144,88.513s.841-.584,1.222-.523a4.912,4.912,0,0,1,1.189.607,2.212,2.212,0,0,1-.521-1.226,2.942,2.942,0,0,1,.607-1.187s-.731.653-1.227.522a5.017,5.017,0,0,1-1.186-.607s.589.767.519,1.227A3.681,3.681,0,0,1,122.144,88.513Z" transform="translate(-109.804 -86.098)"/>
        <path id="Path_2012" data-name="Path 2012" class="cls-4" d="M140.058,125.143s.842-.584,1.226-.522a4.849,4.849,0,0,1,1.189.605A2.2,2.2,0,0,1,141.95,124a2.932,2.932,0,0,1,.605-1.185s-.729.651-1.224.517a5.065,5.065,0,0,1-1.19-.607s.59.771.523,1.228A3.724,3.724,0,0,1,140.058,125.143Z" transform="translate(-112.114 -90.821)"/>
        <path id="Path_2013" data-name="Path 2013" class="cls-4" d="M129.509,115.053s.184-.557.379-.662a2.714,2.714,0,0,1,.748-.132s-.5-.119-.659-.378a1.671,1.671,0,0,1-.133-.75s-.105.549-.379.659a2.78,2.78,0,0,1-.747.132s.53.149.659.381A2.108,2.108,0,0,1,129.509,115.053Z" transform="translate(-110.651 -89.584)"/>
        <path id="Path_2014" data-name="Path 2014" class="cls-4" d="M168.721,95.972s-.292-.51-.234-.726a2.771,2.771,0,0,1,.4-.642,1.256,1.256,0,0,1-.722.235,1.682,1.682,0,0,1-.644-.405s.334.447.234.724a2.959,2.959,0,0,1-.4.644s.465-.294.724-.233A2.091,2.091,0,0,1,168.721,95.972Z" transform="translate(-115.633 -87.173)"/>
        <path id="Path_2015" data-name="Path 2015" class="cls-4" d="M137.914,98.148s-.288-.506-.233-.72a2.814,2.814,0,0,1,.4-.644,1.261,1.261,0,0,1-.723.233,1.665,1.665,0,0,1-.645-.405s.337.449.236.724a2.819,2.819,0,0,1-.4.642s.465-.294.722-.233A2.125,2.125,0,0,1,137.914,98.148Z" transform="translate(-111.661 -87.454)"/>
      </g>
      <g id="Group_1322" data-name="Group 1322" transform="translate(0 0)">
        <path id="Path_2016" data-name="Path 2016" class="cls-4" d="M65.218,58.163s-3.409-2.443-3.69-4.006.706-5.4.706-5.4-1.909,3.188-4.009,3.692-5.4-.706-5.4-.706,3.516,1.913,3.692,4.006a20.665,20.665,0,0,1-.707,5.4s2.143-3.315,4.009-3.692S65.218,58.163,65.218,58.163Z" transform="translate(-29.256 -27.067)"/>
        <path id="Path_2017" data-name="Path 2017" class="cls-4" d="M82.963,65.82s-1.99-.28-2.452-.881a9.408,9.408,0,0,1-.9-2.448,4.318,4.318,0,0,1-.882,2.455,5.761,5.761,0,0,1-2.447.9s1.917.03,2.456.88a10,10,0,0,1,.9,2.447s.171-1.882.88-2.454A7.3,7.3,0,0,1,82.963,65.82Z" transform="translate(-32.28 -28.839)"/>
        <path id="Path_2018" data-name="Path 2018" class="cls-4" d="M64.565,26.941s-.3-.981-.129-1.327a4.851,4.851,0,0,1,.936-.951,2.2,2.2,0,0,1-1.327.132,2.949,2.949,0,0,1-.949-.937s.4.893.127,1.327a5.02,5.02,0,0,1-.934.949s.908-.33,1.329-.128A3.77,3.77,0,0,1,64.565,26.941Z" transform="translate(-30.476 -23.857)"/>
        <path id="Path_2019" data-name="Path 2019" class="cls-4" d="M84.241,47.409s-.477-.338-.519-.558a2.741,2.741,0,0,1,.1-.754s-.267.444-.56.515a1.7,1.7,0,0,1-.757-.1s.492.267.519.559a2.957,2.957,0,0,1-.1.754s.3-.463.561-.515A2.157,2.157,0,0,1,84.241,47.409Z" transform="translate(-33.083 -26.725)"/>
        <path id="Path_2020" data-name="Path 2020" class="cls-4" d="M44.489,99.8s-1.99-.278-2.455-.88a9.438,9.438,0,0,1-.9-2.447,4.294,4.294,0,0,1-.882,2.454,5.757,5.757,0,0,1-2.446.9s1.92.03,2.455.881a9.846,9.846,0,0,1,.9,2.448s.173-1.883.882-2.455A7.293,7.293,0,0,1,44.489,99.8Z" transform="translate(-27.319 -33.221)"/>
        <path id="Path_2021" data-name="Path 2021" class="cls-4" d="M28.044,84.648s-.3-.978-.132-1.323a4.934,4.934,0,0,1,.936-.95,2.21,2.21,0,0,1-1.326.129,2.948,2.948,0,0,1-.949-.937s.4.895.13,1.327a5.048,5.048,0,0,1-.936.951s.909-.331,1.326-.128A3.7,3.7,0,0,1,28.044,84.648Z" transform="translate(-25.767 -31.298)"/>
        <path id="Path_2022" data-name="Path 2022" class="cls-4" d="M68.368,78.586s-.306-.98-.129-1.327a4.817,4.817,0,0,1,.934-.95,2.2,2.2,0,0,1-1.326.129A2.922,2.922,0,0,1,66.9,75.5s.4.892.125,1.324a5.053,5.053,0,0,1-.936.951s.913-.328,1.328-.126A3.679,3.679,0,0,1,68.368,78.586Z" transform="translate(-30.966 -30.516)"/>
        <path id="Path_2023" data-name="Path 2023" class="cls-4" d="M55.615,85.738s-.476-.342-.517-.562a2.728,2.728,0,0,1,.1-.753s-.265.444-.558.517a1.711,1.711,0,0,1-.755-.1s.491.267.515.559a2.844,2.844,0,0,1-.1.753s.3-.463.563-.515A2.094,2.094,0,0,1,55.615,85.738Z" transform="translate(-29.393 -31.667)"/>
        <path id="Path_2024" data-name="Path 2024" class="cls-4" d="M49.174,42.612s-.573.126-.761.006a2.865,2.865,0,0,1-.492-.578,1.261,1.261,0,0,1,.009.76,1.685,1.685,0,0,1-.58.492s.526-.183.76-.005a2.928,2.928,0,0,1,.492.579s-.142-.533,0-.76A2.127,2.127,0,0,1,49.174,42.612Z" transform="translate(-28.55 -26.202)"/>
        <path id="Path_2025" data-name="Path 2025" class="cls-4" d="M41.981,72.646s-.571.125-.758.009a2.818,2.818,0,0,1-.492-.581,1.258,1.258,0,0,1,0,.759,1.643,1.643,0,0,1-.58.494s.53-.185.76-.007a2.82,2.82,0,0,1,.492.579s-.14-.531,0-.759A2.107,2.107,0,0,1,41.981,72.646Z" transform="translate(-27.622 -30.074)"/>
      </g>
      <g id="Group_1323" data-name="Group 1323" transform="translate(135.242 72.004)">
        <path id="Path_2026" data-name="Path 2026" class="cls-4" d="M202.387,144.623s-2.106-3.629-1.719-5.17,2.862-4.634,2.862-4.634-3.047,2.121-5.167,1.719-4.638-2.861-4.638-2.861,2.421,3.19,1.72,5.167a20.649,20.649,0,0,1-2.863,4.636s3.315-2.143,5.169-1.718S202.387,144.623,202.387,144.623Z" transform="translate(-182.519 -110.022)"/>
        <path id="Path_2027" data-name="Path 2027" class="cls-4" d="M239.2,161.433s-1.7-1.071-1.875-1.812a9.52,9.52,0,0,1,.185-2.6s-.821,1.577-1.808,1.878a5.757,5.757,0,0,1-2.6-.187s1.738.814,1.878,1.81a9.913,9.913,0,0,1-.186,2.6s.932-1.645,1.812-1.876A7.278,7.278,0,0,1,239.2,161.433Z" transform="translate(-187.743 -113.032)"/>
        <path id="Path_2028" data-name="Path 2028" class="cls-4" d="M238.35,109.934s.125-1.019.429-1.26a4.813,4.813,0,0,1,1.241-.482,2.207,2.207,0,0,1-1.261-.429,2.931,2.931,0,0,1-.482-1.243s0,.98-.429,1.261a5.047,5.047,0,0,1-1.241.483s.963.071,1.261.427A3.756,3.756,0,0,1,238.35,109.934Z" transform="translate(-188.195 -106.52)"/>
        <path id="Path_2029" data-name="Path 2029" class="cls-4" d="M255.86,127.937s-.294-.508-.241-.721a2.841,2.841,0,0,1,.4-.648,1.268,1.268,0,0,1-.723.24,1.687,1.687,0,0,1-.645-.4s.339.444.238.722a2.866,2.866,0,0,1-.4.646s.463-.3.722-.24A2.112,2.112,0,0,1,255.86,127.937Z" transform="translate(-190.501 -109.084)"/>
        <path id="Path_2030" data-name="Path 2030" class="cls-4" d="M202.715,186.041s-1.7-1.072-1.876-1.811a9.581,9.581,0,0,1,.186-2.6s-.822,1.578-1.81,1.877a5.742,5.742,0,0,1-2.6-.186s1.737.814,1.879,1.81a10.022,10.022,0,0,1-.184,2.6s.926-1.645,1.81-1.877A7.314,7.314,0,0,1,202.715,186.041Z" transform="translate(-183.038 -116.205)"/>
        <path id="Path_2031" data-name="Path 2031" class="cls-4" d="M195.273,225.78s.124-1.018.427-1.26a4.839,4.839,0,0,1,1.242-.482,2.2,2.2,0,0,1-1.26-.429,2.938,2.938,0,0,1-.483-1.243s0,.979-.429,1.263a5.136,5.136,0,0,1-1.24.48s.961.071,1.261.429A3.711,3.711,0,0,1,195.273,225.78Z" transform="translate(-182.641 -121.457)"/>
        <path id="Path_2032" data-name="Path 2032" class="cls-4" d="M216.674,159.615s.127-1.019.428-1.261a4.869,4.869,0,0,1,1.245-.482,2.216,2.216,0,0,1-1.266-.429,2.958,2.958,0,0,1-.478-1.243s0,.979-.429,1.262a5.025,5.025,0,0,1-1.243.483s.964.07,1.261.426A3.718,3.718,0,0,1,216.674,159.615Z" transform="translate(-185.4 -112.926)"/>
        <path id="Path_2033" data-name="Path 2033" class="cls-4" d="M182.4,163.135s-.294-.508-.24-.722a2.757,2.757,0,0,1,.4-.646,1.267,1.267,0,0,1-.723.239,1.688,1.688,0,0,1-.648-.4s.34.443.241.721a2.878,2.878,0,0,1-.4.648s.463-.3.721-.242A2.146,2.146,0,0,1,182.4,163.135Z" transform="translate(-181.029 -113.623)"/>
        <path id="Path_2034" data-name="Path 2034" class="cls-4" d="M208.232,123.858s-.574-.122-.7-.307a2.764,2.764,0,0,1-.21-.729,1.259,1.259,0,0,1-.309.7,1.654,1.654,0,0,1-.729.211s.558.048.7.307a2.946,2.946,0,0,1,.207.73s.091-.544.309-.7A2.157,2.157,0,0,1,208.232,123.858Z" transform="translate(-184.286 -108.622)"/>
        <path id="Path_2035" data-name="Path 2035" class="cls-4" d="M183.613,126.09s-.573-.124-.7-.306a2.766,2.766,0,0,1-.212-.733,1.267,1.267,0,0,1-.306.7,1.71,1.71,0,0,1-.733.212s.56.045.7.3a2.95,2.95,0,0,1,.209.731s.091-.544.307-.7A2.123,2.123,0,0,1,183.613,126.09Z" transform="translate(-181.111 -108.91)"/>
      </g>
    </g>
    <g id="Group_1338" data-name="Group 1338" transform="translate(42.288 58.123)">
      <g id="Group_1331" data-name="Group 1331" transform="translate(46.851 48.487)">
        <g id="Group_1326" data-name="Group 1326">
          <path id="Path_2036" data-name="Path 2036" class="cls-28" d="M128.628,120.734c7.215,0,13.725,6.548,23.461,6.548s16.244-6.548,23.458-6.548c14.262,0,29.72,20.352,27.627,36.686-2.333,18.209-22.6,73.1-36.6,73.1-6.907,0-6.873-13.715-10.407-28.434-1.614-6.729-4.843-7.536-6.458.538-3.022,15.109-5.651,27.9-12.116,27.9-13.994,0-34.668-58.469-36.6-73.1C98.849,141.1,114.732,120.734,128.628,120.734Z" transform="translate(-100.805 -120.734)"/>
          <path id="Path_2037" data-name="Path 2037" class="cls-10" d="M172,205.525c-6.658.537-5.337-19.555-19.107-20.371-7.91-.47-11.4,3.464-12.57,9.563-1.233,6.451-.775,12.478-7.716,12.062s-25.89-30.317-25.375-49.285c.235-8.671,3.907-18.425,7.982-26.054a14.8,14.8,0,0,1,13.683-7.673c6.989.255,13.23,4.9,19.153,8.122,7.978,4.332,13.846-2.914,21.038-4.857,6.873-1.857,13.21-.03,17.756,5.652,5.49,6.864,5.583,17.013,3.591,25.2C188.986,163.86,178.658,204.986,172,205.525Z" transform="translate(-101.632 -121.124)"/>
          <path id="Path_2038" data-name="Path 2038" class="cls-4" d="M153.41,136.182c-4.723.5-8.643-.651-13.142-1.935-4.368-1.246-9.171-2-13.388.2-8.621,4.5-12.7,15.641-14.325,24.647-.977,5.415-1.67,10.935-.85,16.413A37.336,37.336,0,0,0,112.8,180.4c-3.4-7.792-5.752-16.059-5.566-22.9.235-8.671,3.907-18.425,7.982-26.054a14.8,14.8,0,0,1,13.683-7.673c6.989.255,13.23,4.9,19.153,8.122,7.978,4.332,13.846-2.914,21.038-4.857a20.318,20.318,0,0,1,2.476-.51C166.931,131.617,160.076,135.475,153.41,136.182Z" transform="translate(-101.632 -121.124)"/>
          <path id="Path_2039" data-name="Path 2039" class="cls-11" d="M171.342,129.555a15.663,15.663,0,0,1-12.751,2.922c-5.385-.954-11.35-3.807-13.345-8.416,3.718,1.62,7.749,3.229,12.573,3.229,9.226,0,15.555-5.878,22.334-6.491C177.2,123.7,174.583,126.929,171.342,129.555Z" transform="translate(-106.535 -120.742)"/>
          <path id="Path_2040" data-name="Path 2040" class="cls-11" d="M122.786,208.625c2.635,3.915,9.743,8.874,15.226,7.389,5.381-1.458,5.843-9.022,6.87-13.434.483-2.075.807-5.739,3.047-6.73a8.225,8.225,0,0,1,7.2.4,18.348,18.348,0,0,1,8.428,12.377c.7,4.55,1.524,11.012,7.4,11.134,3.088.065,4.669-3.327,6.481-5.423,2.932-3.384,16.027-26.526,26.143-48.45-3.709,20.347-22.81,70.456-36.178,70.456-6.907,0-6.873-13.715-10.407-28.434-1.614-6.729-4.843-7.536-6.458.538-3.022,15.109-5.651,27.9-12.116,27.9-10.111,0-23.708-30.521-31.2-52.98C112.2,193.556,117.017,200.051,122.786,208.625Z" transform="translate(-101.632 -126.557)"/>
          <g id="Group_1325" data-name="Group 1325" transform="translate(40.399 3.771)">
            <path id="Path_2041" data-name="Path 2041" class="cls-6" d="M147.918,125.1l.865.339c.274.117.61.22.99.409l1.278.6c.929.424,1.972.97,3.13,1.461.578.245,1.165.53,1.782.761l1.876.691c.623.257,1.285.381,1.915.575.639.162,1.256.387,1.878.488l1.787.321a13.6,13.6,0,0,0,1.611.247l3.362.255-3.378-.088a13.774,13.774,0,0,1-1.63-.166l-1.819-.233c-.632-.071-1.264-.266-1.919-.4-.647-.165-1.328-.259-1.969-.487l-1.938-.6c-.638-.206-1.243-.463-1.841-.682-1.2-.437-2.279-.936-3.211-1.307l-1.252-.512c-.366-.161-.723-.253-1-.355l-.88-.3-.009,0a.539.539,0,0,1,.343-1.021Z" transform="translate(-147.184 -125.063)"/>
          </g>
          <path id="Path_2042" data-name="Path 2042" class="cls-6" d="M195.869,128.158a4.451,4.451,0,0,1,2.518,1.216,7.1,7.1,0,0,1,1.965,2.512.05.05,0,0,1-.087.05,8.574,8.574,0,0,0-2.143-2.218c-.706-.536-1.735-.746-2.339-1.354A.122.122,0,0,1,195.869,128.158Z" transform="translate(-113.047 -121.691)"/>
          <path id="Path_2043" data-name="Path 2043" class="cls-6" d="M194.731,129.049a3.9,3.9,0,0,1,2.757,1.733c.028.051-.031.126-.085.087a6.855,6.855,0,0,0-2.843-1.2C194.153,129.6,194.325,128.976,194.731,129.049Z" transform="translate(-112.863 -121.805)"/>
          <path id="Path_2044" data-name="Path 2044" class="cls-6" d="M195.988,210.655c.412-.533.961-.9,1.414-1.4a4.607,4.607,0,0,0,1.15-2.194c.01-.046.071-.03.075.008.165,1.5-.947,3.6-2.595,3.7C195.971,210.768,195.958,210.695,195.988,210.655Z" transform="translate(-113.076 -131.861)"/>
          <path id="Path_2045" data-name="Path 2045" class="cls-6" d="M193.664,209.981c.789-.7,1.9-.993,2.551-1.867a.063.063,0,0,1,.115.048,2.712,2.712,0,0,1-2.616,1.935A.069.069,0,0,1,193.664,209.981Z" transform="translate(-112.775 -131.997)"/>
          <path id="Path_2046" data-name="Path 2046" class="cls-13" d="M119.229,202.028c.473.945.641,2.016,1.13,2.978.476.931,1.159,1.726,1.717,2.6.013.021-.015.05-.035.035-1.543-1.044-3.212-3.624-3.1-5.539C118.942,201.961,119.155,201.877,119.229,202.028Z" transform="translate(-103.142 -131.206)"/>
          <path id="Path_2047" data-name="Path 2047" class="cls-13" d="M120.216,200.232a.109.109,0,0,1,.2-.024,4.323,4.323,0,0,1,.489,1.642,10.386,10.386,0,0,0,.508,1.736c.067.169-.186.248-.279.117C120.5,202.8,119.8,201.344,120.216,200.232Z" transform="translate(-103.291 -130.975)"/>
          <path id="Path_2048" data-name="Path 2048" class="cls-6" d="M130.488,123.954a4.1,4.1,0,0,1,3.843-.1c.054.022.026.105-.029.105-.571,0-1.138-.059-1.71-.071a20.594,20.594,0,0,0-2.057.242C130.433,124.138,130.419,124,130.488,123.954Z" transform="translate(-104.626 -121.081)"/>
          <path id="Path_2049" data-name="Path 2049" class="cls-6" d="M128.91,125.812a3.087,3.087,0,0,1,3.061-.451c.114.039.1.237-.031.222a3.768,3.768,0,0,0-2.188.429c-.212.111-.814.589-.921.1A.3.3,0,0,1,128.91,125.812Z" transform="translate(-104.417 -121.304)"/>
        </g>
        <g id="Group_1330" data-name="Group 1330" transform="translate(25.353 14.736)">
          <g id="Group_1327" data-name="Group 1327">
            <path id="Path_2050" data-name="Path 2050" class="cls-29" d="M170.765,147.818c0,5.617,2.618,10.166,5.848,10.166s5.846-4.55,5.846-10.166-2.617-10.167-5.846-10.167S170.765,142.2,170.765,147.818Z" transform="translate(-135.179 -137.651)"/>
            <path id="Path_2051" data-name="Path 2051" class="cls-30" d="M129.911,166.249a25.928,25.928,0,0,0,51.854,0Z" transform="translate(-129.911 -141.338)"/>
            <path id="Path_2052" data-name="Path 2052" class="cls-31" d="M179.513,181.276a26.091,26.091,0,0,1-37.175,7.394C155.661,170.98,179.513,181.276,179.513,181.276Z" transform="translate(-131.513 -142.892)"/>
            <path id="Path_2053" data-name="Path 2053" class="cls-29" d="M134.873,147.818c0,5.617,2.617,10.166,5.846,10.166s5.845-4.55,5.845-10.166-2.615-10.167-5.845-10.167S134.873,142.2,134.873,147.818Z" transform="translate(-130.551 -137.651)"/>
            <path id="Path_2054" data-name="Path 2054" class="cls-4" d="M172.581,144.549c0,2.842,5.919-5.148,3.813-5.148S172.581,141.7,172.581,144.549Z" transform="translate(-135.413 -137.877)"/>
            <path id="Path_2055" data-name="Path 2055" class="cls-4" d="M137.82,144.549c0,2.842,5.921-5.148,3.814-5.148S137.82,141.7,137.82,144.549Z" transform="translate(-130.931 -137.877)"/>
            <path id="Path_2056" data-name="Path 2056" class="cls-4" d="M142.719,142.51a1.321,1.321,0,1,0,1.321-1.321A1.323,1.323,0,0,0,142.719,142.51Z" transform="translate(-131.562 -138.107)"/>
            <path id="Path_2057" data-name="Path 2057" class="cls-4" d="M177.479,142.51a1.321,1.321,0,1,0,1.32-1.321A1.322,1.322,0,0,0,177.479,142.51Z" transform="translate(-136.044 -138.107)"/>
          </g>
          <line id="Line_17" data-name="Line 17" class="cls-32" x1="51.854" transform="translate(0 24.411)"/>
          <g id="Group_1328" data-name="Group 1328" transform="translate(17.068 52.424)">
            <path id="Path_2058" data-name="Path 2058" class="cls-6" d="M167.228,197.835l-.572.6a4.33,4.33,0,0,1-.714.628,7.048,7.048,0,0,1-1.041.71,8.026,8.026,0,0,1-1.334.659,9.532,9.532,0,0,1-1.584.52,13.183,13.183,0,0,1-1.754.313,16.285,16.285,0,0,1-1.836.068c-.618,0-1.226-.1-1.828-.152a15.454,15.454,0,0,1-1.733-.376,12.4,12.4,0,0,1-1.569-.522,14.068,14.068,0,0,1-1.341-.624,12.175,12.175,0,0,1-1.06-.658c-.3-.223-.564-.405-.758-.587l-.6-.575.719.4c.223.13.523.243.841.405s.711.279,1.111.452c.419.134.865.293,1.347.427s.993.26,1.528.361c.528.133,1.091.165,1.651.267.567.039,1.141.121,1.718.107a15.029,15.029,0,0,0,1.718-.027c.561-.062,1.122-.094,1.65-.2a13,13,0,0,0,1.515-.352,10.993,10.993,0,0,0,1.325-.454,9.483,9.483,0,0,0,1.079-.495,5.357,5.357,0,0,0,.816-.458Z" transform="translate(-149.505 -197.835)"/>
          </g>
          <g id="Group_1329" data-name="Group 1329" transform="translate(33.323 38.081)">
            <path id="Path_2059" data-name="Path 2059" class="cls-33" d="M175.514,185.18a.87.87,0,1,0,.869-.873A.871.871,0,0,0,175.514,185.18Z" transform="translate(-169.114 -181.748)"/>
            <path id="Path_2060" data-name="Path 2060" class="cls-33" d="M174.693,181.929a.559.559,0,1,0,.558-.56A.56.56,0,0,0,174.693,181.929Z" transform="translate(-169.008 -181.369)"/>
            <path id="Path_2061" data-name="Path 2061" class="cls-33" d="M172.914,185.928a.619.619,0,1,0,.618-.621A.618.618,0,0,0,172.914,185.928Z" transform="translate(-168.779 -181.877)"/>
            <path id="Path_2062" data-name="Path 2062" class="cls-33" d="M168.569,182.655a.619.619,0,1,0,.618-.621A.617.617,0,0,0,168.569,182.655Z" transform="translate(-168.219 -181.455)"/>
            <path id="Path_2063" data-name="Path 2063" class="cls-33" d="M169.279,187.348a.619.619,0,1,0,.619-.62A.618.618,0,0,0,169.279,187.348Z" transform="translate(-168.31 -182.06)"/>
            <path id="Path_2064" data-name="Path 2064" class="cls-33" d="M171.2,184.484a.474.474,0,1,0,.475-.476A.473.473,0,0,0,171.2,184.484Z" transform="translate(-168.558 -181.709)"/>
            <path id="Path_2065" data-name="Path 2065" class="cls-33" d="M173.624,183.957a.332.332,0,1,0,.331-.334A.333.333,0,0,0,173.624,183.957Z" transform="translate(-168.871 -181.66)"/>
            <path id="Path_2066" data-name="Path 2066" class="cls-33" d="M168.167,185.049a.332.332,0,1,0,.334-.334A.335.335,0,0,0,168.167,185.049Z" transform="translate(-168.167 -181.8)"/>
            <path id="Path_2067" data-name="Path 2067" class="cls-33" d="M171.363,181.985a.331.331,0,1,0,.332-.331A.332.332,0,0,0,171.363,181.985Z" transform="translate(-168.579 -181.406)"/>
          </g>
        </g>
      </g>
      <path id="Path_2068" data-name="Path 2068" class="cls-34" d="M98.657,177.77c-1.923,4.2-17.337,18.471-29.884,3.633" transform="translate(-49.823 -79.601)"/>
      <path id="Path_2069" data-name="Path 2069" class="cls-35" d="M68.59,181.861c-1.1.92-2.443.415-3.433-.33-.7-.521-.853-4.165-.02-4.435s2.466,1.558,2.466,1.558.67-1.121.888-.759C69.226,179.1,69.678,180.95,68.59,181.861Z" transform="translate(-49.282 -79.511)"/>
      <path id="Path_2070" data-name="Path 2070" class="cls-36" d="M213.3,177.189c4.3,1.691,18.321,18.182,1.471,32.481" transform="translate(-68.459 -79.526)"/>
      <path id="Path_2071" data-name="Path 2071" class="cls-37" d="M210.956,177.824c-.173,1.344,3.29,3.347,3.29,3.347s3.668-2.212,3.3-5.36a5.881,5.881,0,0,0-4.108-2.415" transform="translate(-68.156 -79.037)"/>
      <path id="Path_2072" data-name="Path 2072" class="cls-38" d="M107.472,177.824c.175,1.344-3.288,3.347-3.288,3.347s-3.668-2.212-3.3-5.36A5.883,5.883,0,0,1,105,173.4" transform="translate(-53.961 -79.037)"/>
      <path id="Path_2073" data-name="Path 2073" class="cls-35" d="M214.92,213.946c1.666,1.787-.752,4.488-1.571,4.894-1.248.618-2.92-.169-3-1.184-.071-.924,1.422-2.549,1.422-2.549s-1.156-.607-.807-.847C212.129,213.462,213.953,212.911,214.92,213.946Z" transform="translate(-68.078 -84.193)"/>
      <g id="Group_1336" data-name="Group 1336">
        <path id="Path_2074" data-name="Path 2074" class="cls-39" d="M51.276,102.326c-7.413-4.11-4.256-14.378,2.665-18.514,9.876-5.9,11.87-10.467,10.941-14.1-.83-3.262-5.1-3.9-5.1-3.9s10.669-3.639,13.595,5.245C75.663,77.981,60.949,107.688,51.276,102.326Z" transform="translate(-47.018 -65.07)"/>
        <path id="Path_2075" data-name="Path 2075" class="cls-4" d="M66.4,71.153a4.448,4.448,0,0,0-.189-.566c3.279,3.2.844,8-1.952,11.133-3.1,3.467-7.564,5.254-10.416,9.067a24.3,24.3,0,0,0-4.556,9.341c-2.258-4.847.833-11.682,6.169-14.87C65.335,79.354,67.329,74.791,66.4,71.153Z" transform="translate(-47.215 -65.781)"/>
        <path id="Path_2076" data-name="Path 2076" class="cls-5" d="M53.8,96.392A33.258,33.258,0,0,0,60.7,90.3c3.893-4.311,8.319-9.206,9.144-15.187.659-4.793-3.088-8.88-7.6-9.841,3.315-.517,9.182-.455,11.238,5.785,2.283,6.928-12.431,36.636-22.1,31.274a7.985,7.985,0,0,1-3.6-3.862A15.369,15.369,0,0,0,53.8,96.392Z" transform="translate(-47.115 -65.07)"/>
        <g id="Group_1333" data-name="Group 1333" transform="translate(2.568 9.862)">
          <g id="Group_1332" data-name="Group 1332">
            <path id="Path_2077" data-name="Path 2077" class="cls-6" d="M51.084,103.985l-.457-1.394c-.111-.473-.287-1.047-.4-1.711q-.08-.5-.169-1.059c-.028-.378-.057-.775-.088-1.189.005-.416.006-.851.028-1.3a13.388,13.388,0,0,1,.189-1.378,11.826,11.826,0,0,1,.934-2.837,17.29,17.29,0,0,1,3.906-5.027c1.582-1.467,3.3-2.75,4.882-3.966a47.708,47.708,0,0,0,4.2-3.477,16.649,16.649,0,0,0,1.477-1.594,8.375,8.375,0,0,0,.548-.722,5.873,5.873,0,0,0,.423-.644,7.588,7.588,0,0,0,.513-.95l.166-.346-.152.351a7.7,7.7,0,0,1-.482.972,6,6,0,0,1-.4.661,8.75,8.75,0,0,1-.526.746,16.911,16.911,0,0,1-1.431,1.659,47.9,47.9,0,0,1-4.091,3.644c-1.543,1.272-3.2,2.611-4.7,4.1a16.587,16.587,0,0,0-3.574,4.936,10.947,10.947,0,0,0-.77,2.652,12.411,12.411,0,0,0-.128,1.271c-.005.414.009.814.016,1.2.043.382.083.749.121,1.1.068.345.132.672.193.98.129.612.307,1.12.421,1.551.323.875.507,1.376.507,1.376a.606.606,0,0,1-1.138.419Z" transform="translate(-49.966 -76.392)"/>
          </g>
        </g>
        <g id="Group_1335" data-name="Group 1335" transform="translate(6.63 2.877)">
          <g id="Group_1334" data-name="Group 1334">
            <path id="Path_2078" data-name="Path 2078" class="cls-6" d="M55.429,103.435s-.047-.152-.134-.438-.241-.679-.357-1.263a12.128,12.128,0,0,1-.282-2.112,7.3,7.3,0,0,1,.007-1.293c.016-.227.021-.462.044-.7.039-.235.08-.476.121-.721a14.111,14.111,0,0,1,.895-3.058,20.358,20.358,0,0,1,1.648-3.107,31.681,31.681,0,0,1,2.2-3.013c.809-.973,1.652-1.938,2.532-2.868,1.747-1.869,3.571-3.65,5.2-5.387a25.491,25.491,0,0,0,3.966-5.123,7.849,7.849,0,0,0,.843-2.429,6.985,6.985,0,0,0,.032-1.074,5.855,5.855,0,0,0-.16-.9c-.091-.262-.172-.5-.243-.7-.106-.188-.2-.349-.268-.479-.146-.26-.226-.4-.226-.4l.238.391c.076.129.172.287.283.473.078.2.166.437.266.7a5.814,5.814,0,0,1,.191.908,7.081,7.081,0,0,1,0,1.1,7.994,7.994,0,0,1-.785,2.5,25.753,25.753,0,0,1-3.852,5.3C66,81.528,64.225,83.364,62.548,85.27c-.846.949-1.652,1.928-2.418,2.908a30.926,30.926,0,0,0-2.055,3,19.364,19.364,0,0,0-1.488,3.016,13.273,13.273,0,0,0-.751,2.875c-.03.226-.062.449-.092.665-.014.219-.011.432-.019.639a6.383,6.383,0,0,0,.028,1.178,10.964,10.964,0,0,0,.3,1.861c.111.508.3.937.382,1.216l.147.433a.606.606,0,1,1-1.147.39Z" transform="translate(-54.629 -68.372)"/>
          </g>
        </g>
      </g>
      <g id="Group_1337" data-name="Group 1337" transform="translate(3.055 30.587)">
        <rect id="Rectangle_251" data-name="Rectangle 251" class="cls-40" width="16.872" height="12.274" transform="translate(0 6.799) rotate(-23.763)"/>
        <path id="Path_2079" data-name="Path 2079" class="cls-41" d="M57.781,115.564c2.43-.6,5.144-1.584,6.869-3.4,3.425-3.6,1.476-6.926-.655-10.832l2.61-1.148,4.946,11.233-15.443,6.8-.638-1.449C56.306,116.709,56.972,115.762,57.781,115.564Z" transform="translate(-51.163 -100.185)"/>
        <path id="Path_2080" data-name="Path 2080" class="cls-42" d="M56.36,108.842a3.014,3.014,0,1,0,5.516-2.429" transform="translate(-51.278 -100.988)"/>
        <line id="Line_18" data-name="Line 18" class="cls-42" x1="3.869" y2="1.703" transform="translate(1.214 7.854)"/>
        <line id="Line_19" data-name="Line 19" class="cls-42" y1="2.524" x2="5.732" transform="translate(10.599 2.902)"/>
        <path id="Path_2081" data-name="Path 2081" class="cls-43" d="M86.3,226.209l42.191-18.575s-37.472-77.779-40.681-83.6c-2.179-3.957-13.044-4.22-13.044-4.22l-17.31,7.62s-7.528,6.8-5.344,12.316S86.3,226.209,86.3,226.209Z" transform="translate(-50.678 -102.716)"/>
        <path id="Path_2082" data-name="Path 2082" class="cls-44" d="M88.862,210.482a3.409,3.409,0,0,0,4.561,1.867l21.043-9.265a3.41,3.41,0,0,0,1.706-4.624L90.455,145.17a3.716,3.716,0,0,0-4.791-1.767l-16.806,7.4a3.711,3.711,0,0,0-1.931,4.725Z" transform="translate(-52.607 -105.718)"/>
        <path id="Path_2083" data-name="Path 2083" class="cls-43" d="M97.136,243.406l35.7-15.717.77-7.055L91.415,239.209Z" transform="translate(-55.798 -115.716)"/>
        <path id="Path_2084" data-name="Path 2084" class="cls-41" d="M130.582,224.033,93.177,240.5l-1.762-1.291,42.191-18.576-.77,7.055-2.788,1.227Z" transform="translate(-55.798 -115.716)"/>
        <line id="Line_20" data-name="Line 20" class="cls-45" x2="1.523" y2="3.461" transform="translate(74.022 106.587)"/>
        <line id="Line_21" data-name="Line 21" class="cls-45" x2="1.524" y2="3.462" transform="translate(71.317 107.776)"/>
        <line id="Line_22" data-name="Line 22" class="cls-45" x2="1.523" y2="3.461" transform="translate(68.612 108.968)"/>
        <line id="Line_23" data-name="Line 23" class="cls-45" x2="1.524" y2="3.464" transform="translate(65.907 110.157)"/>
        <line id="Line_24" data-name="Line 24" class="cls-45" x2="1.524" y2="3.46" transform="translate(63.204 111.35)"/>
        <line id="Line_25" data-name="Line 25" class="cls-45" x2="1.523" y2="3.462" transform="translate(60.499 112.54)"/>
        <line id="Line_26" data-name="Line 26" class="cls-45" x2="1.524" y2="3.462" transform="translate(57.795 113.731)"/>
        <line id="Line_27" data-name="Line 27" class="cls-45" x2="1.523" y2="3.462" transform="translate(55.09 114.921)"/>
        <line id="Line_28" data-name="Line 28" class="cls-45" x2="1.524" y2="3.462" transform="translate(52.385 116.112)"/>
        <line id="Line_29" data-name="Line 29" class="cls-45" x2="1.524" y2="3.462" transform="translate(49.68 117.303)"/>
        <line id="Line_30" data-name="Line 30" class="cls-45" x2="1.524" y2="3.462" transform="translate(46.975 118.493)"/>
        <line id="Line_31" data-name="Line 31" class="cls-45" x2="1.524" y2="3.463" transform="translate(44.271 119.683)"/>
        <line id="Line_32" data-name="Line 32" class="cls-45" x2="1.523" y2="3.462" transform="translate(41.568 120.874)"/>
        <line id="Line_33" data-name="Line 33" class="cls-45" x2="1.526" y2="3.46" transform="translate(38.861 122.066)"/>
        <rect id="Rectangle_252" data-name="Rectangle 252" class="cls-46" width="18.912" height="6.855" transform="translate(4.012 18.443) rotate(-23.756)"/>
        <path id="Path_2085" data-name="Path 2085" class="cls-47" d="M66.066,121.266c1.763-.863,4.148-1.523,5.207-3.293a5.919,5.919,0,0,0,.426-4.927l.99-.435,2.762,6.274-17.31,7.62-1.079-2.454A27.151,27.151,0,0,0,66.066,121.266Z" transform="translate(-51.368 -101.787)"/>
        <line id="Line_34" data-name="Line 34" class="cls-42" x2="1.864" y2="4.235" transform="translate(19.739 11.52)"/>
        <line id="Line_35" data-name="Line 35" class="cls-42" x2="1.864" y2="4.235" transform="translate(16.9 12.771)"/>
        <line id="Line_36" data-name="Line 36" class="cls-42" x2="1.864" y2="4.236" transform="translate(14.06 14.02)"/>
        <line id="Line_37" data-name="Line 37" class="cls-42" x2="1.863" y2="4.235" transform="translate(11.221 15.271)"/>
        <line id="Line_38" data-name="Line 38" class="cls-42" x2="1.865" y2="4.236" transform="translate(8.38 16.52)"/>
        <line id="Line_39" data-name="Line 39" class="cls-42" x2="1.865" y2="4.235" transform="translate(5.539 17.771)"/>
        <path id="Path_2086" data-name="Path 2086" class="cls-48" d="M111.271,210.279c3.374-3.358,6.6-7.071,7.86-11.787,1.269-4.752-27.907-69.251-32.2-70.2-3.554-.787-6.734,1.168-10.123,1.811a9.09,9.09,0,0,0,.68-1.409,5.434,5.434,0,0,0-.969-5.178c-1.368-1.5-3.114-1.216-4.863-.786-.73.181-1.476.321-2.226.443l7.618-3.354s10.866.263,13.044,4.22c3.209,5.82,40.681,83.6,40.681,83.6L88.58,226.209,86.363,220.6C93.006,220.129,105.084,216.438,111.271,210.279Z" transform="translate(-52.963 -102.716)"/>
        <path id="Path_2087" data-name="Path 2087" class="cls-4" d="M56.223,143.629a20.163,20.163,0,0,1,.189-8.046c.505-1.86,2.138-5.027,4.269-5.334a.077.077,0,0,1,.086.083,6.256,6.256,0,0,1-1.163,2.547,15.945,15.945,0,0,0-1.347,3.016c-.761,2.379-.443,5.033-.1,7.452A.977.977,0,0,1,56.223,143.629Z" transform="translate(-51.22 -104.061)"/>
        <path id="Path_2088" data-name="Path 2088" class="cls-49" d="M88.091,216.561C84,216.7,80.5,200.992,79.357,198.125c-7.59-18.966-19.6-42.7-19.3-59.366.068-3.709,2.506-7.059,5.131-9.82,1.88-1.976,7.526-5.624,9.282-1.432.764,1.827-.94,3.977-.524,5.913.709,3.3,5.141,3.615,6.564,6.666,1.438,3.084,1.3,6.611,2.1,9.9,2.1,8.584,3.54,17.22,5.374,25.863,1.289,6.07,3.957,11.668,5.9,17.5,1.3,3.906,3.629,7.752,4.6,11.739.787,3.226,1.615,11.38-4.035,11.251Z" transform="translate(-51.754 -103.459)"/>
      </g>
      <path id="Path_2089" data-name="Path 2089" class="cls-50" d="M64.678,181.411a1.931,1.931,0,0,0,2.231,0c.781-.481.882-3.856,0-4.325a2.121,2.121,0,0,0-2.231,0C64.21,177.451,64.262,180.956,64.678,181.411Z" transform="translate(-49.252 -79.473)"/>
    </g>
  </g>
</svg>
