<svg xmlns="http://www.w3.org/2000/svg" width="41.773" height="50.5" viewBox="0 0 41.773 50.5">
  <defs>
    <style>
      .cls-1 {
        fill: #3a9cd8;
      }

      .cls-2 {
        fill: none;
        stroke: #3a9cd8;
        stroke-linecap: round;
        stroke-linejoin: round;
        stroke-width: 2.5px;
      }
    </style>
  </defs>
  <g id="Group_1160" data-name="Group 1160" transform="translate(-769.905 -2828.358)">
    <g id="dental_1_" data-name="dental (1)" transform="translate(779.202 2839.25)">
      <path id="Path_1725" data-name="Path 1725" class="cls-1" d="M122.7,14.372a33.98,33.98,0,0,0,1.749,10.762l.705,2.119a2.143,2.143,0,0,0,4.065,0l2.2-6.612h.5l2.2,6.613a2.142,2.142,0,0,0,4.064,0l.7-2.117a34,34,0,0,0,1.749-10.762,8.47,8.47,0,0,0,2.692-6.295c0-4.453-3.22-8.076-7.179-8.076a6.63,6.63,0,0,0-4.487,1.771A6.633,6.633,0,0,0,127.183,0C123.224,0,120,3.624,120,8.077A8.47,8.47,0,0,0,122.7,14.372ZM127.183,1.8a4.991,4.991,0,0,1,3.8,1.846.928.928,0,0,0,1.364,0,4.989,4.989,0,0,1,3.8-1.846c2.969,0,5.384,2.818,5.384,6.281s-2.415,6.281-5.384,6.281v1.795a6.451,6.451,0,0,0,2.668-.584,32.176,32.176,0,0,1-1.633,9l-.7,2.116a.362.362,0,0,1-.661,0l-2.408-7.224a.9.9,0,0,0-.851-.614h-1.795a.9.9,0,0,0-.85.614l-2.409,7.223a.362.362,0,0,1-.661,0l-.7-2.118a32.238,32.238,0,0,1-1.633-9,6.438,6.438,0,0,0,2.668.585V14.358c-2.969,0-5.384-2.818-5.384-6.281S124.213,1.8,127.183,1.8Zm0,0" transform="translate(-120.004 0)"/>
    </g>
    <path id="Path_1729" data-name="Path 1729" class="cls-2" d="M42.273,20.636C42.273,35.909,22.636,49,22.636,49S3,35.909,3,20.636a19.636,19.636,0,1,1,39.273,0Z" transform="translate(768.155 2828.608)"/>
  </g>
</svg>
