<svg xmlns="http://www.w3.org/2000/svg" width="137.231" height="126.5" viewBox="0 0 137.231 126.5">
  <defs>
    <style>
      .cls-1 {
        fill: #84b7b4;
      }

      .cls-2 {
        fill: #231f20;
      }

      .cls-3 {
        fill: #deeced;
      }

      .cls-4 {
        fill: #fff;
      }

      .cls-5 {
        fill: #b9e1ea;
      }
    </style>
  </defs>
  <g id="Group_1495" data-name="Group 1495" transform="translate(-2743.694 -274.158)">
    <path id="Path_2267" data-name="Path 2267" class="cls-1" d="M2934.593,745.736c0,3.782-20.7,6.848-46.227,6.848s-46.227-3.066-46.227-6.848,20.7-6.849,46.227-6.849S2934.593,741.953,2934.593,745.736Z" transform="translate(-74.55 -351.926)"/>
    <g id="Group_1494" data-name="Group 1494" transform="translate(2743.694 274.158)">
      <g id="Group_1488" data-name="Group 1488" transform="translate(8.527 40.386)">
        <path id="Path_2268" data-name="Path 2268" class="cls-2" d="M2795.231,465.64a14.261,14.261,0,0,1-6.943-3.612,29.727,29.727,0,0,1-5.086-5.66,26.877,26.877,0,0,1-3.335-7.021,18.375,18.375,0,0,1-.934-7.872c.2-1.544,2.555-1.035,2.36.5a15.874,15.874,0,0,0,.863,6.613,24.949,24.949,0,0,0,2.947,6.288,26.981,26.981,0,0,0,4.422,5.03,12.2,12.2,0,0,0,6.2,3.377c1.54.23,1.034,2.589-.5,2.36Z" transform="translate(-2778.822 -440.54)"/>
      </g>
      <path id="Path_2269" data-name="Path 2269" class="cls-2" d="M2776.628,406.98c3.164.584,2.537,3.8,1.549,5.954.6-.5,1.513-1.183,2.237-.419.667.7-.236,1.707-.8,2.193-1.4,1.21-2.756,2.472-2.959,4.443l-.477,3.62c-.628-3.385-2.766-6.169-3.261-9.558C2772.559,410.765,2773.115,406.332,2776.628,406.98Z" transform="translate(-2765.753 -374.692)"/>
      <g id="Group_1489" data-name="Group 1489" transform="translate(104.382 40.852)">
        <path id="Path_2270" data-name="Path 2270" class="cls-2" d="M3174.89,463.906a14.262,14.262,0,0,0,7.538-2.1,29.713,29.713,0,0,0,6.144-4.49,26.884,26.884,0,0,0,4.711-6.183,18.371,18.371,0,0,0,2.537-7.511c.126-1.551-2.287-1.539-2.412,0a15.876,15.876,0,0,1-2.208,6.293,24.96,24.96,0,0,1-4.18,5.545,26.979,26.979,0,0,1-5.364,4.01,12.206,12.206,0,0,1-6.766,2.026c-1.554-.093-1.545,2.32,0,2.412Z" transform="translate(-3173.728 -442.461)"/>
      </g>
      <g id="Group_1490" data-name="Group 1490" transform="translate(21.002 26.856)">
        <path id="Path_2271" data-name="Path 2271" class="cls-3" d="M2854.423,476.962c-5.919-.164-11.093-1.3-14.3-11.159-2.207-6.791-1.479-14.792-2.219-19.982s-6.9-21.02-7.642-33.736,7.148-25.951,19.967-26.729,18,3.633,24.651,3.893c8.637.337,15.253-4.943,26.87-4.412,11.339.519,17.009,12.975,17.5,26.21.436,11.695-6.578,28.922-6.41,34.774.247,8.564-.246,30.362-9.86,30.362-11.118,0-13.558-15.83-16.763-18.944-5.877-5.712-10.846-6.228-16.023-1.038C2864.2,462.218,2863.791,477.222,2854.423,476.962Z" transform="translate(-2830.217 -384.8)"/>
      </g>
      <path id="Path_2272" data-name="Path 2272" class="cls-4" d="M2879.238,411.613a12.054,12.054,0,0,0-11.237,2.7,18.025,18.025,0,0,0-6.028,6.036c-2.519,4.448-4.237,10.515-1.667,15.4,2.141,4.067,7.255,4.051,8.892-.363,1.445-3.895.147-8.066,2.66-11.715,2.4-3.491,5.827-3.5,9.184-5.707C2884.735,415.528,2882.693,412.514,2879.238,411.613Z" transform="translate(-2831.037 -377.926)"/>
      <path id="Path_2273" data-name="Path 2273" class="cls-5" d="M3108.568,412.466c-.466-12.34-5.253-23.469-14.633-25.826,17.109,7.008,11.716,34.458,3.6,45.794-2.25,3.141-5.708,3.779-10.049,6.833-4.007,2.82,5.949,3.055,9.084,12.14,1.871,5.419,4.177,18.828-3.457,21.144a13.009,13.009,0,0,1-8.281-.161,11.332,11.332,0,0,1-4.621-4.526c2.438,4.862,5.851,9.649,12.009,9.729,9.817.127,10.187-21.815,9.941-30.378C3101.989,441.363,3109.009,424.161,3108.568,412.466Z" transform="translate(-2998.526 -359.337)"/>
      <g id="Group_1491" data-name="Group 1491" transform="translate(54.386 62.243)">
        <path id="Path_2274" data-name="Path 2274" class="cls-2" d="M2982.09,541.045c-.123,0-.247,0-.373,0-6.026-.118-9.5-2.441-11.345-4.369a10.761,10.761,0,0,1-2.6-4.234.73.73,0,0,1,.646-.865.87.87,0,0,1,1.024.544c.082.3,2.111,7.277,12.311,7.477a12.159,12.159,0,0,0,8.2-2.575,7.819,7.819,0,0,0,3.094-5.706.868.868,0,0,1,1.712,0,9.279,9.279,0,0,1-3.61,6.741A13.873,13.873,0,0,1,2982.09,541.045Z" transform="translate(-2967.755 -530.59)"/>
      </g>
      <path id="Path_2275" data-name="Path 2275" class="cls-2" d="M3119.764,435.473c-1.453-.693-4.4-1.094-5.869.125-.61.507-.639,1.367.362,1.8,1.208.506,1.813-.37,4.714.547,1,.317,2.226,1.025,2.569-.391C3121.832,436.345,3120.676,435.908,3119.764,435.473Z" transform="translate(-3023.711 -395.819)"/>
      <path id="Path_2276" data-name="Path 2276" class="cls-2" d="M2898.879,437.815c1.3-.948,4.125-1.884,5.791-.955a1,1,0,0,1-.025,1.832c-1.094.719-1.85-.03-4.533,1.4-.928.5-2,1.417-2.6.089C2897.006,439.053,2898.061,438.411,2898.879,437.815Z" transform="translate(-2860.077 -397.078)"/>
      <path id="Path_2277" data-name="Path 2277" class="cls-2" d="M3247.131,408.918c-3.216-.081-3.265,3.194-2.743,5.506-.483-.614-1.236-1.47-2.1-.871-.8.551-.121,1.719.329,2.311,1.119,1.472,2.187,2.987,1.979,4.957l-.28,3.641c1.313-3.182,3.979-5.466,5.162-8.68C3250.332,413.461,3250.7,409.008,3247.131,408.918Z" transform="translate(-3120.984 -376.207)"/>
      <path id="Path_2278" data-name="Path 2278" class="cls-2" d="M2903.677,485.4a6.135,6.135,0,0,0-6.526-4.446,7.968,7.968,0,0,0-3.109.88l-2.577-2.577a.8.8,0,0,0-1.137,1.137l2.386,2.386a6.012,6.012,0,0,0-1.287,1.715l-2.943-1.279a.8.8,0,1,0-.641,1.474l3.111,1.353a.8.8,0,0,0,.684.793.83.83,0,0,0,.116.008.807.807,0,0,0,.795-.685c.02-.132.545-3.238,4.741-3.6a4.573,4.573,0,0,1,4.836,3.272.8.8,0,0,0,1.55-.429Z" transform="translate(-2852.487 -429.298)"/>
      <path id="Path_2279" data-name="Path 2279" class="cls-2" d="M3089.077,480.506a6.136,6.136,0,0,1,6.3-4.758,7.971,7.971,0,0,1,3.149.727l2.448-2.7a.8.8,0,0,1,1.191,1.08l-2.267,2.5a6.006,6.006,0,0,1,1.369,1.65l2.877-1.421a.8.8,0,0,1,.712,1.442l-3.041,1.5a.8.8,0,0,1-1.588.194c-.027-.131-.7-3.208-4.911-3.368a4.573,4.573,0,0,0-4.671,3.5.8.8,0,0,1-1.569-.353Z" transform="translate(-3005.228 -425.123)"/>
      <g id="Group_1492" data-name="Group 1492" transform="translate(80.881 60.318)">
        <path id="Path_2280" data-name="Path 2280" class="cls-2" d="M3077.113,523.4a3.656,3.656,0,0,1,1.464,1.3c.248.456.942.05.695-.406a4.408,4.408,0,0,0-1.752-1.591c-.459-.24-.865.454-.406.694Z" transform="translate(-3076.911 -522.656)"/>
      </g>
      <g id="Group_1493" data-name="Group 1493" transform="translate(51.95 61.901)">
        <path id="Path_2281" data-name="Path 2281" class="cls-2" d="M2959.2,529.253a5.078,5.078,0,0,0-1.431,1.913c-.233.461.46.868.694.406a4.367,4.367,0,0,1,1.142-1.624c.417-.3.017-1-.406-.694Z" transform="translate(-2957.718 -529.179)"/>
      </g>
      <path id="Path_2282" data-name="Path 2282" class="cls-4" d="M3008.556,274.158c-3.213-.05.541,15.956.541,15.956C3009.1,288.363,3012.525,274.219,3008.556,274.158Z" transform="translate(-2943.282 -274.158)"/>
      <path id="Path_2283" data-name="Path 2283" class="cls-4" d="M3078.708,302.673c-1.769-.5-2.04,8.9-2.04,8.9C3076.923,310.607,3080.893,303.289,3078.708,302.673Z" transform="translate(-2995.845 -295.737)"/>
      <path id="Path_2284" data-name="Path 2284" class="cls-4" d="M3185.8,346.581c-1.429-1.156-5.386,7.374-5.386,7.374C3181.032,353.167,3187.567,348.009,3185.8,346.581Z" transform="translate(-3074.411 -328.92)"/>
      <path id="Path_2285" data-name="Path 2285" class="cls-4" d="M3274.643,478.66c.074-1.837-9.132.082-9.132.082C3266.512,478.765,3274.551,480.928,3274.643,478.66Z" transform="translate(-3138.851 -428.419)"/>
      <path id="Path_2286" data-name="Path 2286" class="cls-4" d="M2950.256,305.97c-1.816.286,1.866,8.939,1.866,8.939C2951.95,313.923,2952.5,305.616,2950.256,305.97Z" transform="translate(-2899.737 -298.24)"/>
      <path id="Path_2287" data-name="Path 2287" class="cls-4" d="M2833.375,342.378c-1.494,1.072,5.686,7.146,5.686,7.146C2838.463,348.72,2835.218,341.054,2833.375,342.378Z" transform="translate(-2811.451 -325.703)"/>
      <path id="Path_2288" data-name="Path 2288" class="cls-4" d="M2743.7,494.83c.165,1.831,9.044-1.268,9.044-1.268C2751.746,493.668,2743.493,492.569,2743.7,494.83Z" transform="translate(-2743.694 -440.173)"/>
      <path id="Path_2289" data-name="Path 2289" class="cls-4" d="M3145.236,297.35c-3.007-1.134-4.886,15.2-4.886,15.2C3140.94,310.9,3148.95,298.75,3145.236,297.35Z" transform="translate(-3044.07 -291.678)"/>
      <path id="Path_2290" data-name="Path 2290" class="cls-4" d="M3222.759,365.7c-1.948-2.556-12.206,10.29-12.206,10.29C3211.928,374.9,3225.165,368.852,3222.759,365.7Z" transform="translate(-3097.233 -343.222)"/>
      <path id="Path_2291" data-name="Path 2291" class="cls-4" d="M3259.325,537.56c.356-3.194-15.934-.981-15.934-.981C3245.133,536.743,3258.886,541.5,3259.325,537.56Z" transform="translate(-3122.1 -472.316)"/>
      <path id="Path_2292" data-name="Path 2292" class="cls-4" d="M2871.87,296.665c-2.99,1.177,6.572,14.549,6.572,14.549C2877.775,309.6,2875.563,295.211,2871.87,296.665Z" transform="translate(-2840.32 -291.124)"/>
      <path id="Path_2293" data-name="Path 2293" class="cls-4" d="M2775.6,364.431c-2.146,2.392,12.392,10.065,12.392,10.065C2786.673,373.348,2778.253,361.477,2775.6,364.431Z" transform="translate(-2767.693 -342.163)"/>
      <path id="Path_2294" data-name="Path 2294" class="cls-4" d="M2751.671,556.189c.738,3.128,15.338-4.427,15.338-4.427C2765.313,552.192,2750.76,552.327,2751.671,556.189Z" transform="translate(-2749.704 -484.379)"/>
    </g>
  </g>
</svg>
