<svg xmlns="http://www.w3.org/2000/svg" width="48.001" height="48" viewBox="0 0 48.001 48">
  <defs>
    <style>
      .cls-1 {
        fill: #3a9cd8;
      }
    </style>
  </defs>
  <g id="appointment" transform="translate(0 -0.004)">
    <path id="Path_1720" data-name="Path 1720" class="cls-1" d="M6.447,34.4a.8.8,0,0,1-.565-.234A20,20,0,1,1,34.118,5.838a.8.8,0,0,1-1.13,1.133A18.4,18.4,0,0,0,7.012,33.038.8.8,0,0,1,6.447,34.4Z"/>
    <path id="Path_1721" data-name="Path 1721" class="cls-1" d="M56.756,91.365h-.027a4.582,4.582,0,0,1-4.56-4.592V81.125a4.577,4.577,0,0,1,3.94-4.632,23.509,23.509,0,0,0,5.145-1.278,4.6,4.6,0,0,1,4.83,1.03l1.969,1.965a29.439,29.439,0,0,0,10.211-10.19L76.3,66.059a4.584,4.584,0,0,1-1.034-4.83,23.359,23.359,0,0,0,1.278-5.124,4.586,4.586,0,0,1,4.582-3.941h5.664c.137,0,.273.006.409.018a4.575,4.575,0,0,1,4.15,4.966,38.285,38.285,0,0,1-5.93,16.722,37.873,37.873,0,0,1-11.586,11.56,38.44,38.44,0,0,1-16.658,5.912A4.167,4.167,0,0,1,56.756,91.365Zm6.1-14.841a2.958,2.958,0,0,0-1.046.19,25.131,25.131,0,0,1-5.49,1.364A2.974,2.974,0,0,0,53.768,81.1v5.679a2.981,2.981,0,0,0,2.969,2.989c.094,0,.186,0,.278-.013A36.831,36.831,0,0,0,72.97,84.084a36.264,36.264,0,0,0,11.1-11.078,36.67,36.67,0,0,0,5.683-16.014,2.976,2.976,0,0,0-2.7-3.216c-.087-.006-.176-.01-.264-.01H81.119a3.008,3.008,0,0,0-2.989,2.558,24.98,24.98,0,0,1-1.366,5.47,2.977,2.977,0,0,0,.67,3.138l2.4,2.393a.8.8,0,0,1,.13.962A31.026,31.026,0,0,1,68.318,79.906a.8.8,0,0,1-.96-.13l-2.4-2.4A2.988,2.988,0,0,0,62.86,76.524Z" transform="translate(-43.368 -43.361)"/>
    <path id="Path_1722" data-name="Path 1722" class="cls-1" d="M56.362,61.941a1.262,1.262,0,0,1-.918-.4c-1.906-2.03-1.754-6.06-1.746-6.23a16.066,16.066,0,0,1,.675-4.015,2.459,2.459,0,0,0-.362-2.08c-.078-.113-.153-.225-.225-.336A10.462,10.462,0,0,1,52.167,43.2v-.982c0-3.382,3.526-4.275,5.391-4.275a6.272,6.272,0,0,1,4.209,1.678,6.271,6.271,0,0,1,4.209-1.678c1.865,0,5.391.894,5.391,4.276V43.2a10.472,10.472,0,0,1-1.617,5.683c-.073.114-.148.225-.226.338A2.459,2.459,0,0,0,69.16,51.3a16.146,16.146,0,0,1,.675,4.05c.006.136.158,4.166-1.747,6.2a1.256,1.256,0,0,1-1.218.359,1.271,1.271,0,0,1-.921-.893c-.992-3.568-2.747-7.18-4.183-7.18s-3.191,3.612-4.183,7.179a1.273,1.273,0,0,1-.921.894A1.32,1.32,0,0,1,56.362,61.941Zm5.4-9.71c2.832,0,4.715,4.965,5.538,7.707a9.522,9.522,0,0,0,.932-4.556,14.637,14.637,0,0,0-.616-3.649,4.054,4.054,0,0,1,.59-3.43c.067-.1.132-.194.194-.29A8.879,8.879,0,0,0,69.767,43.2v-.982c0-2.628-3.636-2.675-3.793-2.676a4.757,4.757,0,0,0-3.57,1.72.8.8,0,0,1-.636.315h0a.8.8,0,0,1-.637-.318,4.761,4.761,0,0,0-3.57-1.717c-.153,0-3.791.047-3.791,2.676V43.2a8.87,8.87,0,0,0,1.362,4.817c.061.094.126.191.194.289a4.054,4.054,0,0,1,.59,3.429,14.58,14.58,0,0,0-.615,3.615,9.582,9.582,0,0,0,.931,4.59c.823-2.742,2.706-7.707,5.538-7.707Z" transform="translate(-43.367 -31.538)"/>
    <path id="Path_1723" data-name="Path 1723" class="cls-1" d="M86.162,53.583a.8.8,0,0,1,0-1.6c.82,0,2.027-1.035,2.6-1.688a.8.8,0,0,1,1.208,1.049C89.768,51.572,87.973,53.583,86.162,53.583Z" transform="translate(-70.962 -41.579)"/>
  </g>
</svg>
