<svg xmlns="http://www.w3.org/2000/svg" width="52.628" height="52.628" viewBox="0 0 52.628 52.628">
  <defs>
    <style>
      .cls-1 {
        opacity: 0.9;
      }

      .cls-2 {
        fill: #fff;
        stroke: #3a9cd8;
        stroke-linecap: round;
        stroke-linejoin: round;
      }

      .cls-3 {
        fill: #3a9cd8;
      }
    </style>
  </defs>
  <g id="quote" class="cls-1" transform="translate(0.5 0.5)">
    <g id="Group_60" data-name="Group 60" transform="translate(6.831 8.007)">
      <path id="Union_1" data-name="Union 1" class="cls-2" d="M22.4,38.714l-4.69-4.138H0V25.858L22.4,10.027,36.584,0H44.8V34.576H27.959v9.045Z"/>
    </g>
    <g id="Group_62" data-name="Group 62" transform="translate(0 0)">
      <g id="Group_61" data-name="Group 61" transform="translate(0 0)">
        <path id="Union_2" data-name="Union 2" class="cls-2" d="M16.838,34.577H0V0H44.8V34.577H27.089L22.4,38.2l-5.56,4.382Z"/>
      </g>
      <path id="Path_352" data-name="Path 352" class="cls-3" d="M92.546,80.63A5.772,5.772,0,1,0,95.29,91.48v.342a3.452,3.452,0,0,1-3.448,3.448h-1.36V98.3h1.36a6.484,6.484,0,0,0,6.477-6.477V86.4A5.779,5.779,0,0,0,92.546,80.63Z" transform="translate(-78.024 -72.5)"/>
      <path id="Path_353" data-name="Path 353" class="cls-3" d="M243.829,80.63a5.772,5.772,0,1,0,2.743,10.85v.342a3.452,3.452,0,0,1-3.448,3.448h-1.36V98.3h1.36a6.484,6.484,0,0,0,6.477-6.477V86.4A5.779,5.779,0,0,0,243.829,80.63Z" transform="translate(-214.052 -72.5)"/>
    </g>
  </g>
</svg>
