<svg xmlns="http://www.w3.org/2000/svg" width="41.027" height="50.634" viewBox="0 0 41.027 50.634">
  <defs>
    <style>
      .cls-1 {
        opacity: 0.9;
      }

      .cls-2 {
        fill: #fff;
        stroke: #3a9cd8;
        stroke-linecap: round;
        stroke-linejoin: round;
        stroke-miterlimit: 10;
      }

      .cls-3 {
        fill: #3a9cd8;
      }
    </style>
  </defs>
  <g id="Group_4905" data-name="Group 4905" class="cls-1" transform="translate(-148.594 -358.576)">
    <path id="Union_4" data-name="Union 4" class="cls-2" d="M10.382,42.482a32.25,32.25,0,0,1-4.637-13.7S0,24.37,0,12,9.72-.815,13.7.511A26.294,26.294,0,0,0,20.069,1.8a25.171,25.171,0,0,0,3.842-.585,3.693,3.693,0,0,0-.109.847,3.674,3.674,0,0,0,2.868,3.58c-.041,4.251.557,8.209,4.886,8.306A10.681,10.681,0,0,0,36.612,12.5a3.658,3.658,0,0,0,3.415,2.467C39.211,25.08,34.4,28.787,34.4,28.787a32.269,32.269,0,0,1-4.639,13.7c-4.2,6.627-5.965,10.6-6.407,2.652s-1.292-18.776-2.209-20.361l-1.074-1.859L19,24.773c-.917,1.585-1.768,12.408-2.21,20.361-.173,3.128-.553,4.411-1.205,4.411C14.579,49.543,12.926,46.5,10.382,42.482Z" transform="translate(149.094 359.162)"/>
    <g id="Group_178" data-name="Group 178" transform="translate(179.631 359.183)">
      <path id="Path_594" data-name="Path 594" class="cls-3" d="M189.742,363.294a9.468,9.468,0,0,0-7.624-4.11,3.652,3.652,0,0,1,.451.991Z" transform="translate(-182.118 -359.184)"/>
    </g>
    <g id="Group_180" data-name="Group 180" transform="translate(175.763 360.173)">
      <path id="Path_596" data-name="Path 596" class="cls-3" d="M182.486,361.294A3.654,3.654,0,0,1,178,364.876c-.04,4.25.558,8.209,4.887,8.307a10.7,10.7,0,0,0,5.055-1.455,3.618,3.618,0,0,1,3.042-4.842,11.178,11.178,0,0,0-1.495-3.526l-7.172-3.119A3.67,3.67,0,0,1,182.486,361.294Z" transform="translate(-177.995 -360.24)"/>
    </g>
    <g id="Group_181" data-name="Group 181" transform="translate(177.869 359.164)">
      <path id="Path_597" data-name="Path 597" class="cls-3" d="M180.24,359.212l2.213.962a3.653,3.653,0,0,0-.451-.991A12.162,12.162,0,0,0,180.24,359.212Z" transform="translate(-180.24 -359.164)"/>
    </g>
    <g id="Group_182" data-name="Group 182" transform="translate(172.898 359.591)">
      <path id="Path_598" data-name="Path 598" class="cls-3" d="M177.808,364.837c.01-1.215.071-2.453.116-3.632a9.175,9.175,0,0,0-.068-1.586c-.091.026-.183.053-.267.082-.9.3-1.754.53-2.539.709a3.629,3.629,0,0,0,2.758,4.427Z" transform="translate(-174.942 -359.619)"/>
    </g>
    <g id="Group_183" data-name="Group 183" transform="translate(175.764 359.212)">
      <path id="Path_599" data-name="Path 599" class="cls-3" d="M182.486,361.231a3.67,3.67,0,0,0-.172-1.055l-2.213-.962a10.629,10.629,0,0,0-2.056.379,9.18,9.18,0,0,1,.068,1.586c-.045,1.178-.106,2.417-.116,3.632a3.654,3.654,0,0,0,4.489-3.581Z" transform="translate(-177.997 -359.215)"/>
    </g>
    <g id="Group_184" data-name="Group 184" transform="translate(185.706 369.421)">
      <path id="Path_600" data-name="Path 600" class="cls-3" d="M192.052,370.1a25.736,25.736,0,0,1-3.458,2.239,3.663,3.663,0,0,0,3.415,2.467c.075-.935.119-1.921.119-2.969C192.128,371.225,192.1,370.65,192.052,370.1Z" transform="translate(-188.594 -370.097)"/>
    </g>
    <g id="Group_185" data-name="Group 185" transform="translate(185.487 366.819)">
      <path id="Path_601" data-name="Path 601" class="cls-3" d="M188.36,370.958a3.648,3.648,0,0,0,.22,1.207,25.739,25.739,0,0,0,3.458-2.24,16.5,16.5,0,0,0-.416-2.6A3.667,3.667,0,0,0,188.36,370.958Z" transform="translate(-188.36 -367.323)"/>
    </g>
  </g>
</svg>
