<svg xmlns="http://www.w3.org/2000/svg" width="37.811" height="49.686" viewBox="0 0 37.811 49.686">
  <defs>
    <style>
      .cls-1 {
        opacity: 0.9;
      }

      .cls-2 {
        mix-blend-mode: multiply;
      }

      .cls-2, .cls-5 {
        isolation: isolate;
      }

      .cls-3 {
        fill: #d9e2e4;
      }

      .cls-4, .cls-6 {
        fill: #fff;
      }

      .cls-4 {
        stroke: #3a9cd8;
      }

      .cls-5 {
        mix-blend-mode: screen;
      }

      .cls-7 {
        fill: #3a9cd8;
      }
    </style>
  </defs>
  <g id="Group_4906" data-name="Group 4906" class="cls-1" transform="translate(0.512 0.412)">
    <g id="Group_33" data-name="Group 33" class="cls-2" transform="translate(0.001 9.105)">
      <path id="Path_320" data-name="Path 320" class="cls-3" d="M33.863,139.963c-2.956-.394-2.759-4.137-3.941-7.684a87.481,87.481,0,0,1-2.668-12.45c-.59-3.744-3.045-4.3-5.015-12.573a17.809,17.809,0,0,1-.5-4.165,16.408,16.408,0,0,0,.243,6.951c1.97,8.276,4.424,8.829,5.015,12.573a87.479,87.479,0,0,0,2.667,12.45c1.182,3.547.987,7.29,3.941,7.684,1.874.249,2.591-3.947,2.759-7.43C36,137.905,35.246,140.147,33.863,139.963Z" transform="translate(-21.475 -103.092)"/>
      <path id="Path_321" data-name="Path 321" class="cls-3" d="M53.825,112.331c-1.181,2.166-3.349,6.5-3.349,8.472,0,.411-.022.931-.064,1.519a37.862,37.862,0,0,1,3.155-7.2,20.305,20.305,0,0,0,2.359-8.925A21.159,21.159,0,0,1,53.825,112.331Z" transform="translate(-19.175 -102.846)"/>
      <path id="Path_322" data-name="Path 322" class="cls-3" d="M50.083,129.686c-1.01,3.014-1.379,9.26-4.532,9.26s-3.152-11.821-3.35-15.17-.788-7.881-3.546-7.881c-2.048,0-2.9,5.1-3.124,9.024.418-3.192,1.286-6.238,2.867-6.238,2.758,0,3.351,4.533,3.546,7.881s.2,15.17,3.35,15.17,3.52-6.246,4.531-9.26a36.308,36.308,0,0,0,1.552-8.772A33.041,33.041,0,0,1,50.083,129.686Z" transform="translate(-20.357 -102.074)"/>
    </g>
    <g id="Group_37" data-name="Group 37" transform="translate(0 0)">
      <path id="Path_323" data-name="Path 323" class="cls-4" d="M33.605,143.419c2.539.339,2.956-7.486,2.759-10.639s.394-12.412,3.152-12.412,3.351,4.533,3.546,7.881.2,15.17,3.35,15.17,3.52-6.246,4.531-9.26a35.9,35.9,0,0,0,1.577-9.654c0-1.971,2.167-6.305,3.349-8.472s2.955-6.9,2.168-11.231-2.956-9.456-7.093-9.653-6.7,1.97-10.442,1.97-8.472-3.768-12.412-1.983-8.079,7.3-6.108,15.576,4.424,8.829,5.015,12.573a87.477,87.477,0,0,0,2.667,12.45C30.846,139.283,30.651,143.025,33.605,143.419Z" transform="translate(-21.474 -94.657)"/>
      <g id="Group_34" data-name="Group 34" class="cls-5" transform="translate(14.855 37.726)">
        <path id="Path_325" data-name="Path 325" class="cls-6" d="M35.25,129.605c-.026.914-.017,1.717.021,2.306.01.178.019.376.026.581.027-.954.015-1.828-.026-2.489C35.263,129.879,35.257,129.744,35.25,129.605Z" transform="translate(-35.235 -129.605)"/>
      </g>
      <path id="Path_327" data-name="Path 327" class="cls-7" d="M46.067,142.927a7.853,7.853,0,0,0,1.953-4.255,38.36,38.36,0,0,1,1.422-7.25,36.066,36.066,0,0,0,.994-9.355c-.141-2.019,1.849-6.977,2.559-9.26s1.644-9.982-1.422-11.381c-4.549-2.077-8.638,2.206-12.066,2.1s-8.973-3.52-11.531-1.53-2.7,7.428-1.138,11.106,2.416,6.1,2.558,9.792,1.615,19.6,3.863,20.034c0,0,1.966-.984,1.113-10.226s.38-17.629,5.378-17.771,5.852,6.4,5.852,8.1-.425,7.109-.141,9.668S44.682,142.349,46.067,142.927Z" transform="translate(-21.128 -94.164)"/>
    </g>
  </g>
</svg>
