<svg xmlns="http://www.w3.org/2000/svg" width="37.543" height="48.773" viewBox="0 0 37.543 48.773">
  <defs>
    <style>
      .cls-1 {
        opacity: 0.9;
      }

      .cls-2 {
        fill: #fff;
      }

      .cls-3 {
        fill: #3a9cd8;
      }

      .cls-4 {
        fill: #4671c6;
      }

      .cls-5 {
        fill: #2b84ba;
      }
    </style>
  </defs>
  <g id="toothache" class="cls-1" transform="translate(-34.855 -7.999)">
    <path id="Path_2302" data-name="Path 2302" class="cls-2" d="M57.054,73.165,62.7,85.908a3.6,3.6,0,0,0,6.89-1.551l-.386-15.071a1.4,1.4,0,0,1,.239-.818l1.51-2.236a15.372,15.372,0,0,0,2.61-9.46l-.072-1.288a8.264,8.264,0,0,0-12.329-6.729l-4.235,2.4a1.764,1.764,0,0,1-.871.23H54.382a1.766,1.766,0,0,1-.871-.23l-4.235-2.4a8.264,8.264,0,0,0-12.329,6.729l-.072,1.288a15.372,15.372,0,0,0,2.61,9.46L41,68.467a1.4,1.4,0,0,1,.239.818l-.386,15.071a3.6,3.6,0,0,0,6.89,1.551l5.649-12.743a2,2,0,0,1,3.666,0Z" transform="translate(-1.594 -31.684)"/>
    <path id="Path_2303" data-name="Path 2303" class="cls-3" d="M42.865,86.839a4.036,4.036,0,0,1-1.28-.209,3.982,3.982,0,0,1-2.734-3.9l.386-15.071a.989.989,0,0,0-.17-.582l-1.51-2.236a15.865,15.865,0,0,1-2.678-9.708l.072-1.288a8.667,8.667,0,0,1,12.931-7.057l4.235,2.4a1.367,1.367,0,0,0,.672.177h1.677a1.366,1.366,0,0,0,.672-.178l4.234-2.4A8.667,8.667,0,0,1,72.3,53.845l.072,1.288A15.865,15.865,0,0,1,69.7,64.841l-1.51,2.236a.989.989,0,0,0-.17.582L68.4,82.73a4,4,0,0,1-7.662,1.725L55.091,71.712a1.6,1.6,0,0,0-2.929,0L46.513,84.455a3.986,3.986,0,0,1-3.648,2.384Zm.745-40.377a7.875,7.875,0,0,0-7.855,7.428l-.072,1.288a15.057,15.057,0,0,0,2.541,9.212l1.51,2.236a1.791,1.791,0,0,1,.308,1.054l-.386,15.071a3.2,3.2,0,0,0,6.119,1.378l5.649-12.743a2.408,2.408,0,0,1,4.4,0l5.649,12.743A3.2,3.2,0,0,0,67.6,82.751L67.21,67.679a1.791,1.791,0,0,1,.308-1.054l1.51-2.236a15.056,15.056,0,0,0,2.541-9.212L71.5,53.89a7.861,7.861,0,0,0-11.728-6.4l-4.234,2.4a2.173,2.173,0,0,1-1.07.282H52.788a2.175,2.175,0,0,1-1.07-.282l-4.235-2.4A7.838,7.838,0,0,0,43.61,46.462Z" transform="translate(0 -30.067)"/>
    <path id="Path_2304" data-name="Path 2304" class="cls-3" d="M98.031,15.367a.64.64,0,0,1-.686-.333l-1.731-3.46-.746.922a.663.663,0,0,1-.552.241.633.633,0,0,1-.51-.3L91.713,8.928a.609.609,0,0,1,.241-.844.65.65,0,0,1,.875.219l1.621,2.716.794-.982a.663.663,0,0,1,.575-.24.629.629,0,0,1,.508.34L98.5,14.487a.613.613,0,0,1-.3.826A.662.662,0,0,1,98.031,15.367Z" transform="translate(-45.333)"/>
    <path id="Path_2305" data-name="Path 2305" class="cls-3" d="M149.9,15.367a.64.64,0,0,0,.686-.333l1.731-3.46.746.922a.663.663,0,0,0,.552.241.633.633,0,0,0,.51-.3l2.093-3.507a.609.609,0,0,0-.241-.844.65.65,0,0,0-.875.219l-1.621,2.716-.794-.982a.663.663,0,0,0-.575-.24.629.629,0,0,0-.508.34l-2.175,4.349a.613.613,0,0,0,.3.826.662.662,0,0,0,.169.054Z" transform="translate(-91.431)"/>
    <path id="Path_2306" data-name="Path 2306" class="cls-4" d="M141.2,72.621l-4.6,1.3-2.333-1.372a1.4,1.4,0,0,1-.677-.993l-1.077-6.782a.6.6,0,0,0-.044-.144l-.111.063a1.765,1.765,0,0,1-.871.23h-.171c0,.014,0,.027,0,.041l1.077,6.782a2.608,2.608,0,0,0,1.258,1.845l4.438,2.611a1.383,1.383,0,0,1,.651.905l.527,2.5a.6.6,0,1,0,1.183-.249l-.527-2.5a2.6,2.6,0,0,0-1.221-1.7l-.662-.389,3.485-.981a.6.6,0,1,0-.328-1.164Z" transform="translate(-77.02 -45.215)"/>
    <g id="Group_4902" data-name="Group 4902" transform="translate(47.038 15.784)">
      <path id="Path_2307" data-name="Path 2307" class="cls-5" d="M114.925,71.994a5.75,5.75,0,1,1,5.75-5.75A5.756,5.756,0,0,1,114.925,71.994Zm0-10.492a4.742,4.742,0,1,0,4.742,4.742A4.747,4.747,0,0,0,114.925,61.5Z" transform="translate(-106.38 -57.7)"/>
      <path id="Path_2308" data-name="Path 2308" class="cls-3" d="M103.852,63.715a8.545,8.545,0,1,1,8.545-8.545A8.554,8.554,0,0,1,103.852,63.715Zm0-16.082a7.537,7.537,0,1,0,7.537,7.537A7.545,7.545,0,0,0,103.852,47.633Z" transform="translate(-95.307 -46.626)"/>
      <circle id="Ellipse_220" data-name="Ellipse 220" class="cls-5" cx="2.451" cy="2.451" r="2.451" transform="translate(6.093 6.093)"/>
    </g>
  </g>
</svg>
